<svg width="1280" height="190" viewBox="0 0 1280 190" fill="none" xmlns="http://www.w3.org/2000/svg">
<g clip-path="url(#clip0_13604_1297)">
<g clip-path="url(#clip1_13604_1297)">
<path d="M9.34004 4.65C9.34004 4.03935 9.21976 3.43469 8.98608 2.87052C8.75239 2.30636 8.40988 1.79375 7.97808 1.36195C7.54629 0.930161 7.03368 0.587644 6.46952 0.35396C5.90535 0.120276 5.30069 0 4.69004 0C3.45678 0 2.27404 0.48991 1.40199 1.36195C0.529949 2.234 0.0400391 3.41674 0.0400391 4.65C0.0400391 5.88326 0.529949 7.066 1.40199 7.93805C2.27404 8.81009 3.45678 9.3 4.69004 9.3C5.30069 9.3 5.90535 9.17973 6.46952 8.94604C7.03368 8.71236 7.54629 8.36984 7.97808 7.93805C8.40988 7.50625 8.75239 6.99364 8.98608 6.42948C9.21976 5.86532 9.34004 5.26065 9.34004 4.65Z" stroke="#171717" stroke-width="0.5"/>
<path d="M29.6201 4.68945C29.6201 3.49598 29.146 2.35139 28.3021 1.50747C27.4582 0.663559 26.3136 0.189453 25.1201 0.189453C23.9266 0.189453 22.7821 0.663559 21.9381 1.50747C21.0942 2.35139 20.6201 3.49598 20.6201 4.68945C20.6201 5.88293 21.0942 7.02752 21.9381 7.87144C22.7821 8.71535 23.9266 9.18946 25.1201 9.18946C26.3136 9.18946 27.4582 8.71535 28.3021 7.87144C29.146 7.02752 29.6201 5.88293 29.6201 4.68945Z" stroke="#E0AC00" stroke-width="0.5"/>
<path d="M50.1402 4.65016C50.1402 3.45934 49.6671 2.31729 48.8251 1.47525C47.983 0.63321 46.841 0.160156 45.6502 0.160156C45.0605 0.160156 44.4767 0.276294 43.9319 0.501938C43.3872 0.727581 42.8922 1.05831 42.4753 1.47525C42.0583 1.89218 41.7276 2.38716 41.5019 2.93191C41.2763 3.47666 41.1602 4.06052 41.1602 4.65016C41.1602 5.23979 41.2763 5.82365 41.5019 6.36841C41.7276 6.91316 42.0583 7.40813 42.4753 7.82507C42.8922 8.242 43.3872 8.57273 43.9319 8.79838C44.4767 9.02402 45.0605 9.14016 45.6502 9.14016C46.841 9.14016 47.983 8.6671 48.8251 7.82507C49.6671 6.98303 50.1402 5.84098 50.1402 4.65016Z" stroke="#E0AC00" stroke-width="0.5"/>
<path d="M88.6397 4.72953C88.6397 3.54667 88.1698 2.41225 87.3334 1.57584C86.497 0.739424 85.3626 0.269531 84.1797 0.269531C82.9969 0.269531 81.8624 0.739424 81.026 1.57584C80.1896 2.41225 79.7197 3.54667 79.7197 4.72953C79.7197 5.31523 79.8351 5.89519 80.0592 6.4363C80.2834 6.97741 80.6119 7.46908 81.026 7.88323C81.4402 8.29738 81.9318 8.6259 82.473 8.85003C83.0141 9.07417 83.594 9.18953 84.1797 9.18953C84.7654 9.18953 85.3454 9.07417 85.8865 8.85003C86.4276 8.6259 86.9193 8.29738 87.3334 7.88323C87.7476 7.46908 88.0761 6.97741 88.3002 6.4363C88.5244 5.89519 88.6397 5.31523 88.6397 4.72953Z" stroke="#E0AC00" stroke-width="0.5"/>
<path d="M29.4298 24.2608C29.4298 23.0779 28.9599 21.9435 28.1235 21.1071C27.2871 20.2707 26.1526 19.8008 24.9698 19.8008C23.7869 19.8008 22.6525 20.2707 21.8161 21.1071C20.9797 21.9435 20.5098 23.0779 20.5098 24.2608C20.5098 25.4436 20.9797 26.5781 21.8161 27.4145C22.6525 28.2509 23.7869 28.7208 24.9698 28.7208C26.1526 28.7208 27.2871 28.2509 28.1235 27.4145C28.9599 26.5781 29.4298 25.4436 29.4298 24.2608Z" stroke="#E0AC00" stroke-width="0.5"/>
<path d="M50.0396 24.2605C50.0396 23.6762 49.9245 23.0975 49.7009 22.5576C49.4773 22.0177 49.1495 21.5271 48.7363 21.1139C48.3231 20.7007 47.8325 20.3729 47.2926 20.1493C46.7527 19.9256 46.174 19.8105 45.5896 19.8105C44.4094 19.8105 43.2776 20.2794 42.443 21.1139C41.6085 21.9485 41.1396 23.0803 41.1396 24.2605C41.1396 25.4408 41.6085 26.5726 42.443 27.4072C43.2776 28.2417 44.4094 28.7105 45.5896 28.7105C46.174 28.7105 46.7527 28.5954 47.2926 28.3718C47.8325 28.1482 48.3231 27.8204 48.7363 27.4072C49.1495 26.994 49.4773 26.5034 49.7009 25.9635C49.9245 25.4236 50.0396 24.8449 50.0396 24.2605Z" stroke="#E0AC00" stroke-width="0.5"/>
<path d="M9.19051 24.3399C9.19051 23.157 8.72062 22.0226 7.8842 21.1862C7.04779 20.3498 5.91337 19.8799 4.73051 19.8799C3.54764 19.8799 2.41322 20.3498 1.57681 21.1862C0.7404 22.0226 0.270508 23.157 0.270508 24.3399C0.270508 25.5227 0.7404 26.6572 1.57681 27.4936C2.41322 28.33 3.54764 28.7999 4.73051 28.7999C5.91337 28.7999 7.04779 28.33 7.8842 27.4936C8.72062 26.6572 9.19051 25.5227 9.19051 24.3399Z" stroke="#E0AC00" stroke-width="0.5"/>
<path d="M88.6797 24.2905C88.6797 23.1024 88.2077 21.9629 87.3676 21.1227C86.5274 20.2825 85.3879 19.8105 84.1997 19.8105C83.0116 19.8105 81.872 20.2825 81.0319 21.1227C80.1917 21.9629 79.7197 23.1024 79.7197 24.2905C79.7197 25.4787 80.1917 26.6182 81.0319 27.4584C81.872 28.2985 83.0116 28.7705 84.1997 28.7705C85.3879 28.7705 86.5274 28.2985 87.3676 27.4584C88.2077 26.6182 88.6797 25.4787 88.6797 24.2905Z" stroke="#E0AC00" stroke-width="0.5"/>
<path d="M68.8899 24.2999C68.8899 23.3372 68.5074 22.4139 67.8267 21.7331C67.1459 21.0524 66.2226 20.6699 65.2599 20.6699C64.2972 20.6699 63.3738 21.0524 62.6931 21.7331C62.0123 22.4139 61.6299 23.3372 61.6299 24.2999C61.6299 25.2627 62.0123 26.186 62.6931 26.8667C63.3738 27.5475 64.2972 27.9299 65.2599 27.9299C66.2226 27.9299 67.1459 27.5475 67.8267 26.8667C68.5074 26.186 68.8899 25.2627 68.8899 24.2999Z" stroke="#E0AC00" stroke-width="0.5"/>
<path d="M9.1602 43.7808C9.1602 42.5926 8.6882 41.4531 7.84803 40.6129C7.00787 39.7728 5.86836 39.3008 4.68019 39.3008C3.49203 39.3008 2.35252 39.7728 1.51236 40.6129C0.672195 41.4531 0.200195 42.5926 0.200195 43.7808C0.200195 44.3691 0.316073 44.9517 0.541214 45.4952C0.766355 46.0387 1.09635 46.5326 1.51236 46.9486C1.92836 47.3646 2.42223 47.6946 2.96577 47.9198C3.50931 48.1449 4.09187 48.2608 4.68019 48.2608C5.26852 48.2608 5.85108 48.1449 6.39462 47.9198C6.93816 47.6946 7.43203 47.3646 7.84803 46.9486C8.26404 46.5326 8.59403 46.0387 8.81917 45.4952C9.04431 44.9517 9.1602 44.3691 9.1602 43.7808Z" stroke="#E0AC00" stroke-width="0.5"/>
<path d="M29.68 43.8092C29.68 42.5866 29.1943 41.414 28.3297 40.5495C27.4652 39.6849 26.2926 39.1992 25.07 39.1992C23.8473 39.1992 22.6747 39.6849 21.8102 40.5495C20.9457 41.414 20.46 42.5866 20.46 43.8092C20.46 45.0319 20.9457 46.2044 21.8102 47.069C22.6747 47.9335 23.8473 48.4192 25.07 48.4192C26.2926 48.4192 27.4652 47.9335 28.3297 47.069C29.1943 46.2044 29.68 45.0319 29.68 43.8092Z" stroke="#171717" stroke-width="0.5"/>
<path d="M50.1203 43.8106C50.1203 43.2302 50.0059 42.6554 49.7838 42.1192C49.5617 41.5829 49.2361 41.0956 48.8257 40.6852C48.4152 40.2748 47.928 39.9492 47.3917 39.7271C46.8555 39.505 46.2807 39.3906 45.7003 39.3906C44.528 39.3906 43.4038 39.8563 42.5749 40.6852C41.7459 41.5141 41.2803 42.6384 41.2803 43.8106C41.2803 44.3911 41.3946 44.9658 41.6167 45.5021C41.8388 46.0383 42.1644 46.5256 42.5749 46.936C42.9853 47.3465 43.4726 47.6721 44.0088 47.8942C44.5451 48.1163 45.1198 48.2306 45.7003 48.2306C46.2807 48.2306 46.8555 48.1163 47.3917 47.8942C47.928 47.6721 48.4152 47.3465 48.8257 46.936C49.2361 46.5256 49.5617 46.0383 49.7838 45.5021C50.0059 44.9658 50.1203 44.3911 50.1203 43.8106Z" stroke="#E0AC00" stroke-width="0.5"/>
<path d="M88.6105 43.8795C88.6105 42.7019 88.1427 41.5726 87.31 40.7399C86.4774 39.9072 85.348 39.4395 84.1705 39.4395C82.9929 39.4395 81.8636 39.9072 81.0309 40.7399C80.1983 41.5726 79.7305 42.7019 79.7305 43.8795C79.7305 45.057 80.1983 46.1863 81.0309 47.019C81.8636 47.8517 82.9929 48.3195 84.1705 48.3195C85.348 48.3195 86.4774 47.8517 87.31 47.019C88.1427 46.1863 88.6105 45.057 88.6105 43.8795Z" stroke="#E0AC00" stroke-width="0.5"/>
<path d="M88.9 63.4895C88.9 62.8697 88.7779 62.2559 88.5407 61.6833C88.3035 61.1106 87.9558 60.5903 87.5175 60.152C87.0792 59.7137 86.5589 59.366 85.9862 59.1288C85.4136 58.8916 84.7998 58.7695 84.18 58.7695C83.5601 58.7695 82.9464 58.8916 82.3737 59.1288C81.801 59.366 81.2807 59.7137 80.8424 60.152C80.4041 60.5903 80.0565 61.1106 79.8193 61.6833C79.582 62.2559 79.46 62.8697 79.46 63.4895C79.46 64.7414 79.9572 65.9419 80.8424 66.8271C81.7276 67.7122 82.9281 68.2095 84.18 68.2095C85.4318 68.2095 86.6323 67.7122 87.5175 66.8271C88.4027 65.9419 88.9 64.7414 88.9 63.4895Z" stroke="#171717" stroke-width="0.5"/>
<path d="M9.19972 63.4607C9.19972 62.8711 9.08359 62.2872 8.85795 61.7425C8.6323 61.1977 8.30157 60.7027 7.88464 60.2858C7.4677 59.8689 6.97273 59.5381 6.42797 59.3125C5.88322 59.0868 5.29936 58.9707 4.70973 58.9707C4.12009 58.9707 3.53623 59.0868 2.99148 59.3125C2.44673 59.5381 1.95175 59.8689 1.53482 60.2858C1.11788 60.7027 0.78715 61.1977 0.561506 61.7425C0.335863 62.2872 0.219727 62.8711 0.219727 63.4607C0.219727 64.6515 0.692778 65.7936 1.53482 66.6356C2.37686 67.4777 3.5189 67.9507 4.70973 67.9507C5.90055 67.9507 7.0426 67.4777 7.88464 66.6356C8.72667 65.7936 9.19972 64.6515 9.19972 63.4607Z" stroke="#E0AC00" stroke-width="0.5"/>
<path d="M29.72 63.4899C29.72 62.2672 29.2343 61.0947 28.3698 60.2301C27.5052 59.3656 26.3326 58.8799 25.11 58.8799C23.8874 58.8799 22.7148 59.3656 21.8502 60.2301C20.9857 61.0947 20.5 62.2672 20.5 63.4899C20.5 64.7125 20.9857 65.8851 21.8502 66.7496C22.7148 67.6142 23.8874 68.0999 25.11 68.0999C26.3326 68.0999 27.5052 67.6142 28.3698 66.7496C29.2343 65.8851 29.72 64.7125 29.72 63.4899Z" stroke="#171717" stroke-width="0.5"/>
<path d="M50.0803 63.5299C50.0803 62.3629 49.6167 61.2438 48.7915 60.4186C47.9664 59.5934 46.8472 59.1299 45.6803 59.1299C44.5133 59.1299 43.3942 59.5934 42.569 60.4186C41.7438 61.2438 41.2803 62.3629 41.2803 63.5299C41.2803 64.6968 41.7438 65.816 42.569 66.6412C43.3942 67.4663 44.5133 67.9299 45.6803 67.9299C46.8472 67.9299 47.9664 67.4663 48.7915 66.6412C49.6167 65.816 50.0803 64.6968 50.0803 63.5299Z" stroke="#E0AC00" stroke-width="0.5"/>
<path d="M29.7897 83.16C29.7897 81.9241 29.2988 80.7388 28.4248 79.8649C27.5509 78.991 26.3656 78.5 25.1297 78.5C24.5178 78.5 23.9118 78.6205 23.3464 78.8547C22.781 79.0889 22.2673 79.4322 21.8346 79.8649C21.4019 80.2976 21.0586 80.8113 20.8244 81.3767C20.5903 81.9421 20.4697 82.548 20.4697 83.16C20.4697 83.772 20.5903 84.3779 20.8244 84.9433C21.0586 85.5087 21.4019 86.0224 21.8346 86.4551C22.2673 86.8878 22.781 87.2311 23.3464 87.4653C23.9118 87.6995 24.5178 87.82 25.1297 87.82C25.7417 87.82 26.3477 87.6995 26.913 87.4653C27.4784 87.2311 27.9921 86.8878 28.4248 86.4551C28.8576 86.0224 29.2008 85.5087 29.435 84.9433C29.6692 84.3779 29.7897 83.772 29.7897 83.16Z" stroke="#171717" stroke-width="0.5"/>
<path d="M88.8698 83.2205C88.8698 81.9846 88.3788 80.7993 87.5049 79.9254C86.631 79.0515 85.4457 78.5605 84.2098 78.5605C82.9739 78.5605 81.7886 79.0515 80.9147 79.9254C80.0408 80.7993 79.5498 81.9846 79.5498 83.2205C79.5498 84.4565 80.0408 85.6417 80.9147 86.5157C81.7886 87.3896 82.9739 87.8805 84.2098 87.8805C85.4457 87.8805 86.631 87.3896 87.5049 86.5157C88.3788 85.6417 88.8698 84.4565 88.8698 83.2205Z" stroke="#171717" stroke-width="0.5"/>
<path d="M9.1802 83.2498C9.1802 82.0589 8.70714 80.9169 7.8651 80.0749C7.02307 79.2328 5.88102 78.7598 4.6902 78.7598C3.49937 78.7598 2.35732 79.2328 1.51529 80.0749C0.673247 80.9169 0.200195 82.0589 0.200195 83.2498C0.200195 83.8394 0.316333 84.4233 0.541977 84.968C0.767621 85.5128 1.09835 86.0077 1.51529 86.4247C1.93222 86.8416 2.42719 87.1723 2.97195 87.398C3.5167 87.6236 4.10056 87.7398 4.6902 87.7398C5.27983 87.7398 5.86369 87.6236 6.40844 87.398C6.9532 87.1723 7.44817 86.8416 7.8651 86.4247C8.28204 86.0077 8.61277 85.5128 8.83842 84.968C9.06406 84.4233 9.1802 83.8394 9.1802 83.2498Z" stroke="#E0AC00" stroke-width="0.5"/>
<path d="M50.07 83.1893C50.07 82.6102 49.9559 82.0367 49.7343 81.5017C49.5127 80.9666 49.1878 80.4805 48.7783 80.071C48.3688 79.6614 47.8827 79.3366 47.3476 79.115C46.8126 78.8934 46.2391 78.7793 45.66 78.7793C44.4904 78.7793 43.3687 79.2439 42.5417 80.071C41.7146 80.898 41.25 82.0197 41.25 83.1893C41.25 84.3589 41.7146 85.4806 42.5417 86.3076C43.3687 87.1347 44.4904 87.5993 45.66 87.5993C46.2391 87.5993 46.8126 87.4852 47.3476 87.2636C47.8827 87.042 48.3688 86.7171 48.7783 86.3076C49.1878 85.8981 49.5127 85.412 49.7343 84.8769C49.9559 84.3419 50.07 83.7684 50.07 83.1893Z" stroke="#E0AC00" stroke-width="0.5"/>
<path d="M108.65 82.5598C108.65 81.5519 108.249 80.5854 107.537 79.8728C106.824 79.1601 105.858 78.7598 104.85 78.7598C103.842 78.7598 102.875 79.1601 102.163 79.8728C101.45 80.5854 101.05 81.5519 101.05 82.5598C101.05 83.5676 101.45 84.5341 102.163 85.2468C102.875 85.9594 103.842 86.3598 104.85 86.3598C105.858 86.3598 106.824 85.9594 107.537 85.2468C108.249 84.5341 108.65 83.5676 108.65 82.5598Z" stroke="#171717" stroke-width="0.5"/>
<path d="M68.9504 82.8292C68.9504 81.8665 68.568 80.9432 67.8872 80.2624C67.2065 79.5817 66.2832 79.1992 65.3204 79.1992C64.8437 79.1992 64.3717 79.2931 63.9313 79.4755C63.4909 79.658 63.0907 79.9253 62.7536 80.2624C62.4166 80.5995 62.1492 80.9997 61.9667 81.4401C61.7843 81.8805 61.6904 82.3525 61.6904 82.8292C61.6904 83.3059 61.7843 83.7779 61.9667 84.2184C62.1492 84.6588 62.4166 85.0589 62.7536 85.396C63.0907 85.7331 63.4909 86.0005 63.9313 86.1829C64.3717 86.3653 64.8437 86.4592 65.3204 86.4592C66.2832 86.4592 67.2065 86.0768 67.8872 85.396C68.568 84.7153 68.9504 83.792 68.9504 82.8292Z" stroke="#E0AC00" stroke-width="0.5"/>
<path d="M29.8605 102.891C29.8605 101.652 29.3685 100.464 28.4927 99.5885C27.6169 98.7127 26.4291 98.2207 25.1905 98.2207C23.9519 98.2207 22.7641 98.7127 21.8883 99.5885C21.0125 100.464 20.5205 101.652 20.5205 102.891C20.5205 103.504 20.6413 104.111 20.876 104.678C21.1107 105.244 21.4547 105.759 21.8883 106.193C22.322 106.627 22.8368 106.971 23.4034 107.205C23.97 107.44 24.5772 107.561 25.1905 107.561C25.8038 107.561 26.411 107.44 26.9776 107.205C27.5442 106.971 28.059 106.627 28.4927 106.193C28.9263 105.759 29.2703 105.244 29.505 104.678C29.7397 104.111 29.8605 103.504 29.8605 102.891Z" stroke="#171717" stroke-width="0.5"/>
<path d="M50.3304 102.8C50.3304 101.588 49.8489 100.426 48.9919 99.569C48.1349 98.712 46.9725 98.2305 45.7604 98.2305C44.5484 98.2305 43.386 98.712 42.5289 99.569C41.6719 100.426 41.1904 101.588 41.1904 102.8C41.1904 104.013 41.6719 105.175 42.5289 106.032C43.386 106.889 44.5484 107.37 45.7604 107.37C46.9725 107.37 48.1349 106.889 48.9919 106.032C49.8489 105.175 50.3304 104.013 50.3304 102.8Z" stroke="#171717" stroke-width="0.5"/>
<path d="M88.8502 102.969C88.8502 101.728 88.3572 100.537 87.4795 99.6598C86.6018 98.7821 85.4114 98.2891 84.1702 98.2891C82.929 98.2891 81.7386 98.7821 80.861 99.6598C79.9833 100.537 79.4902 101.728 79.4902 102.969C79.4902 104.21 79.9833 105.401 80.861 106.278C81.7386 107.156 82.929 107.649 84.1702 107.649C85.4114 107.649 86.6018 107.156 87.4795 106.278C88.3572 105.401 88.8502 104.21 88.8502 102.969Z" stroke="#171717" stroke-width="0.5"/>
<path d="M9.19965 102.889C9.19965 102.294 9.08247 101.705 8.85482 101.156C8.62717 100.606 8.29349 100.107 7.87284 99.6862C7.45219 99.2655 6.95281 98.9319 6.4032 98.7042C5.8536 98.4765 5.26454 98.3594 4.66965 98.3594C4.07476 98.3594 3.4857 98.4765 2.93609 98.7042C2.38649 98.9319 1.8871 99.2655 1.46645 99.6862C1.0458 100.107 0.712128 100.606 0.484474 101.156C0.25682 101.705 0.139648 102.294 0.139648 102.889C0.139648 104.091 0.616914 105.243 1.46645 106.093C2.31599 106.942 3.46822 107.419 4.66965 107.419C5.87108 107.419 7.0233 106.942 7.87284 106.093C8.72238 105.243 9.19965 104.091 9.19965 102.889Z" stroke="#E0AC00" stroke-width="0.5"/>
<path d="M9.32 122.76C9.32 121.524 8.82904 120.338 7.95512 119.464C7.0812 118.591 5.89591 118.1 4.66 118.1C3.42409 118.1 2.2388 118.591 1.36488 119.464C0.490964 120.338 0 121.524 0 122.76C0 123.996 0.490964 125.181 1.36488 126.055C2.2388 126.929 3.42409 127.42 4.66 127.42C5.89591 127.42 7.0812 126.929 7.95512 126.055C8.82904 125.181 9.32 123.996 9.32 122.76Z" stroke="#171717" stroke-width="0.5"/>
<path d="M29.7696 122.76C29.7696 121.516 29.2755 120.324 28.396 119.444C27.5164 118.564 26.3235 118.07 25.0796 118.07C23.8358 118.07 22.6429 118.564 21.7633 119.444C20.8838 120.324 20.3896 121.516 20.3896 122.76C20.3896 124.004 20.8838 125.197 21.7633 126.077C22.6429 126.956 23.8358 127.45 25.0796 127.45C26.3235 127.45 27.5164 126.956 28.396 126.077C29.2755 125.197 29.7696 124.004 29.7696 122.76Z" stroke="#171717" stroke-width="0.5"/>
<path d="M88.8405 122.76C88.8405 122.145 88.7194 121.537 88.4842 120.969C88.249 120.401 87.9043 119.885 87.4697 119.451C87.0352 119.016 86.5192 118.672 85.9514 118.436C85.3836 118.201 84.7751 118.08 84.1605 118.08C83.5459 118.08 82.9373 118.201 82.3695 118.436C81.8017 118.672 81.2858 119.016 80.8512 119.451C80.4166 119.885 80.0719 120.401 79.8367 120.969C79.6015 121.537 79.4805 122.145 79.4805 122.76C79.4805 123.375 79.6015 123.983 79.8367 124.551C80.0719 125.119 80.4166 125.635 80.8512 126.069C81.2858 126.504 81.8017 126.849 82.3695 127.084C82.9373 127.319 83.5459 127.44 84.1605 127.44C84.7751 127.44 85.3836 127.319 85.9514 127.084C86.5192 126.849 87.0352 126.504 87.4697 126.069C87.9043 125.635 88.249 125.119 88.4842 124.551C88.7194 123.983 88.8405 123.375 88.8405 122.76Z" stroke="#171717" stroke-width="0.5"/>
<path d="M9.34004 4.65C9.34004 5.26065 9.21976 5.86532 8.98608 6.42948C8.75239 6.99364 8.40988 7.50625 7.97808 7.93805C7.54629 8.36984 7.03368 8.71236 6.46952 8.94604C5.90535 9.17973 5.30069 9.3 4.69004 9.3C3.45678 9.3 2.27404 8.81009 1.40199 7.93805C0.529949 7.066 0.0400391 5.88326 0.0400391 4.65C0.0400391 3.41674 0.529949 2.234 1.40199 1.36195C2.27404 0.48991 3.45678 0 4.69004 0C5.30069 0 5.90535 0.120276 6.46952 0.35396C7.03368 0.587644 7.54629 0.930161 7.97808 1.36195C8.40988 1.79375 8.75239 2.30636 8.98608 2.87052C9.21976 3.43469 9.34004 4.03935 9.34004 4.65Z" fill="#171717"/>
<path d="M29.6201 4.68945C29.6201 5.88293 29.146 7.02752 28.3021 7.87144C27.4582 8.71535 26.3136 9.18946 25.1201 9.18946C23.9266 9.18946 22.7821 8.71535 21.9381 7.87144C21.0942 7.02752 20.6201 5.88293 20.6201 4.68945C20.6201 3.49598 21.0942 2.35139 21.9381 1.50747C22.7821 0.663559 23.9266 0.189453 25.1201 0.189453C26.3136 0.189453 27.4582 0.663559 28.3021 1.50747C29.146 2.35139 29.6201 3.49598 29.6201 4.68945Z" fill="#E0AC00"/>
<path d="M50.1402 4.65016C50.1402 5.84098 49.6671 6.98303 48.8251 7.82507C47.983 8.6671 46.841 9.14016 45.6502 9.14016C45.0605 9.14016 44.4767 9.02402 43.9319 8.79838C43.3872 8.57273 42.8922 8.242 42.4753 7.82507C42.0583 7.40813 41.7276 6.91316 41.5019 6.36841C41.2763 5.82365 41.1602 5.23979 41.1602 4.65016C41.1602 4.06052 41.2763 3.47666 41.5019 2.93191C41.7276 2.38716 42.0583 1.89218 42.4753 1.47525C42.8922 1.05831 43.3872 0.727582 43.9319 0.501938C44.4767 0.276294 45.0605 0.160156 45.6502 0.160156C46.841 0.160156 47.983 0.63321 48.8251 1.47525C49.6671 2.31729 50.1402 3.45934 50.1402 4.65016Z" fill="#E0AC00"/>
<path d="M88.6397 4.72953C88.6397 5.31523 88.5244 5.89519 88.3002 6.4363C88.0761 6.97741 87.7476 7.46908 87.3334 7.88323C86.9193 8.29738 86.4276 8.6259 85.8865 8.85003C85.3454 9.07417 84.7654 9.18953 84.1797 9.18953C83.594 9.18953 83.0141 9.07417 82.473 8.85003C81.9318 8.6259 81.4402 8.29738 81.026 7.88323C80.6119 7.46908 80.2834 6.97741 80.0592 6.4363C79.8351 5.89519 79.7197 5.31523 79.7197 4.72953C79.7197 3.54667 80.1896 2.41225 81.026 1.57584C81.8624 0.739424 82.9969 0.269531 84.1797 0.269531C85.3626 0.269531 86.497 0.739424 87.3334 1.57584C88.1698 2.41225 88.6397 3.54667 88.6397 4.72953Z" fill="#E0AC00"/>
<path d="M29.4298 24.2608C29.4298 25.4436 28.9599 26.5781 28.1235 27.4145C27.2871 28.2509 26.1526 28.7208 24.9698 28.7208C23.7869 28.7208 22.6525 28.2509 21.8161 27.4145C20.9797 26.5781 20.5098 25.4436 20.5098 24.2608C20.5098 23.0779 20.9797 21.9435 21.8161 21.1071C22.6525 20.2707 23.7869 19.8008 24.9698 19.8008C26.1526 19.8008 27.2871 20.2707 28.1235 21.1071C28.9599 21.9435 29.4298 23.0779 29.4298 24.2608Z" fill="#E0AC00"/>
<path d="M50.0396 24.2605C50.0396 24.8449 49.9245 25.4236 49.7009 25.9635C49.4773 26.5034 49.1495 26.994 48.7363 27.4072C48.3231 27.8204 47.8325 28.1482 47.2926 28.3718C46.7527 28.5954 46.174 28.7105 45.5896 28.7105C44.4094 28.7105 43.2776 28.2417 42.443 27.4072C41.6085 26.5726 41.1396 25.4408 41.1396 24.2605C41.1396 23.0803 41.6085 21.9485 42.443 21.1139C43.2776 20.2794 44.4094 19.8105 45.5896 19.8105C46.174 19.8105 46.7527 19.9256 47.2926 20.1493C47.8325 20.3729 48.3231 20.7007 48.7363 21.1139C49.1495 21.5271 49.4773 22.0177 49.7009 22.5576C49.9245 23.0975 50.0396 23.6762 50.0396 24.2605Z" fill="#E0AC00"/>
<path d="M9.19051 24.3399C9.19051 25.5227 8.72062 26.6572 7.8842 27.4936C7.04779 28.33 5.91337 28.7999 4.73051 28.7999C3.54764 28.7999 2.41322 28.33 1.57681 27.4936C0.7404 26.6572 0.270508 25.5227 0.270508 24.3399C0.270508 23.157 0.7404 22.0226 1.57681 21.1862C2.41322 20.3498 3.54764 19.8799 4.73051 19.8799C5.91337 19.8799 7.04779 20.3498 7.8842 21.1862C8.72062 22.0226 9.19051 23.157 9.19051 24.3399Z" fill="#E0AC00"/>
<path d="M88.6797 24.2905C88.6797 25.4787 88.2077 26.6182 87.3676 27.4584C86.5274 28.2985 85.3879 28.7705 84.1997 28.7705C83.0116 28.7705 81.872 28.2985 81.0319 27.4584C80.1917 26.6182 79.7197 25.4787 79.7197 24.2905C79.7197 23.1024 80.1917 21.9629 81.0319 21.1227C81.872 20.2825 83.0116 19.8105 84.1997 19.8105C85.3879 19.8105 86.5274 20.2825 87.3676 21.1227C88.2077 21.9629 88.6797 23.1024 88.6797 24.2905Z" fill="#E0AC00"/>
<path d="M68.8899 24.2999C68.8899 25.2627 68.5074 26.186 67.8267 26.8667C67.1459 27.5475 66.2226 27.9299 65.2599 27.9299C64.2972 27.9299 63.3738 27.5475 62.6931 26.8667C62.0123 26.186 61.6299 25.2627 61.6299 24.2999C61.6299 23.3372 62.0123 22.4139 62.6931 21.7331C63.3738 21.0524 64.2972 20.6699 65.2599 20.6699C66.2226 20.6699 67.1459 21.0524 67.8267 21.7331C68.5074 22.4139 68.8899 23.3372 68.8899 24.2999Z" fill="#E0AC00"/>
<path d="M9.1602 43.7808C9.1602 44.3691 9.04432 44.9517 8.81917 45.4952C8.59403 46.0387 8.26404 46.5326 7.84803 46.9486C7.43203 47.3646 6.93816 47.6946 6.39462 47.9198C5.85108 48.1449 5.26852 48.2608 4.68019 48.2608C4.09187 48.2608 3.50931 48.1449 2.96577 47.9198C2.42223 47.6946 1.92836 47.3646 1.51236 46.9486C1.09635 46.5326 0.766355 46.0387 0.541214 45.4952C0.316073 44.9517 0.200195 44.3691 0.200195 43.7808C0.200195 42.5926 0.672195 41.4531 1.51236 40.6129C2.35252 39.7728 3.49202 39.3008 4.68019 39.3008C5.86836 39.3008 7.00787 39.7728 7.84803 40.6129C8.6882 41.4531 9.1602 42.5926 9.1602 43.7808Z" fill="#E0AC00"/>
<path d="M29.68 43.8092C29.68 45.0319 29.1943 46.2044 28.3297 47.069C27.4652 47.9335 26.2926 48.4192 25.07 48.4192C23.8473 48.4192 22.6747 47.9335 21.8102 47.069C20.9457 46.2044 20.46 45.0319 20.46 43.8092C20.46 42.5866 20.9457 41.414 21.8102 40.5495C22.6747 39.6849 23.8473 39.1992 25.07 39.1992C26.2926 39.1992 27.4652 39.6849 28.3297 40.5495C29.1943 41.414 29.68 42.5866 29.68 43.8092Z" fill="#171717"/>
<path d="M50.1203 43.8106C50.1203 44.3911 50.0059 44.9658 49.7838 45.5021C49.5617 46.0383 49.2361 46.5256 48.8257 46.936C48.4152 47.3465 47.928 47.6721 47.3917 47.8942C46.8555 48.1163 46.2807 48.2306 45.7003 48.2306C45.1198 48.2306 44.5451 48.1163 44.0088 47.8942C43.4726 47.6721 42.9853 47.3465 42.5749 46.936C42.1644 46.5256 41.8388 46.0383 41.6167 45.5021C41.3946 44.9658 41.2803 44.3911 41.2803 43.8106C41.2803 42.6384 41.7459 41.5141 42.5749 40.6852C43.4038 39.8563 44.528 39.3906 45.7003 39.3906C46.2807 39.3906 46.8555 39.505 47.3917 39.7271C47.928 39.9492 48.4152 40.2748 48.8257 40.6852C49.2361 41.0956 49.5617 41.5829 49.7838 42.1192C50.0059 42.6554 50.1203 43.2302 50.1203 43.8106Z" fill="#E0AC00"/>
<path d="M88.6095 43.8795C88.6095 45.057 88.1417 46.1863 87.3091 47.019C86.4764 47.8517 85.3471 48.3195 84.1695 48.3195C82.9919 48.3195 81.8626 47.8517 81.0299 47.019C80.1973 46.1863 79.7295 45.057 79.7295 43.8795C79.7295 42.7019 80.1973 41.5726 81.0299 40.7399C81.8626 39.9072 82.9919 39.4395 84.1695 39.4395C85.3471 39.4395 86.4764 39.9072 87.3091 40.7399C88.1417 41.5726 88.6095 42.7019 88.6095 43.8795Z" fill="#E0AC00"/>
<path d="M88.9 63.4895C88.9 64.7414 88.4027 65.9419 87.5175 66.8271C86.6323 67.7122 85.4318 68.2095 84.18 68.2095C82.9281 68.2095 81.7276 67.7122 80.8424 66.8271C79.9572 65.9419 79.46 64.7414 79.46 63.4895C79.46 62.8697 79.582 62.2559 79.8193 61.6833C80.0565 61.1106 80.4041 60.5903 80.8424 60.152C81.2807 59.7137 81.801 59.366 82.3737 59.1288C82.9464 58.8916 83.5601 58.7695 84.18 58.7695C84.7998 58.7695 85.4136 58.8916 85.9862 59.1288C86.5589 59.366 87.0792 59.7137 87.5175 60.152C87.9558 60.5903 88.3035 61.1106 88.5407 61.6833C88.7779 62.2559 88.9 62.8697 88.9 63.4895Z" fill="#171717"/>
<path d="M9.19972 63.4607C9.19972 64.6515 8.72667 65.7936 7.88464 66.6356C7.0426 67.4777 5.90055 67.9507 4.70973 67.9507C3.5189 67.9507 2.37686 67.4777 1.53482 66.6356C0.692778 65.7936 0.219727 64.6515 0.219727 63.4607C0.219727 62.8711 0.335863 62.2872 0.561506 61.7425C0.78715 61.1977 1.11788 60.7027 1.53482 60.2858C1.95175 59.8689 2.44673 59.5381 2.99148 59.3125C3.53623 59.0868 4.12009 58.9707 4.70973 58.9707C5.29936 58.9707 5.88322 59.0868 6.42797 59.3125C6.97273 59.5381 7.4677 59.8689 7.88464 60.2858C8.30157 60.7027 8.6323 61.1977 8.85795 61.7425C9.08359 62.2872 9.19972 62.8711 9.19972 63.4607Z" fill="#E0AC00"/>
<path d="M29.72 63.4899C29.72 64.7125 29.2343 65.8851 28.3698 66.7496C27.5052 67.6142 26.3326 68.0999 25.11 68.0999C23.8874 68.0999 22.7148 67.6142 21.8502 66.7496C20.9857 65.8851 20.5 64.7125 20.5 63.4899C20.5 62.2672 20.9857 61.0947 21.8502 60.2301C22.7148 59.3656 23.8874 58.8799 25.11 58.8799C26.3326 58.8799 27.5052 59.3656 28.3698 60.2301C29.2343 61.0947 29.72 62.2672 29.72 63.4899Z" fill="#171717"/>
<path d="M50.0803 63.5299C50.0803 64.6968 49.6167 65.816 48.7915 66.6412C47.9664 67.4663 46.8472 67.9299 45.6803 67.9299C44.5133 67.9299 43.3942 67.4663 42.569 66.6412C41.7438 65.816 41.2803 64.6968 41.2803 63.5299C41.2803 62.3629 41.7438 61.2438 42.569 60.4186C43.3942 59.5934 44.5133 59.1299 45.6803 59.1299C46.8472 59.1299 47.9664 59.5934 48.7915 60.4186C49.6167 61.2438 50.0803 62.3629 50.0803 63.5299Z" fill="#E0AC00"/>
<path d="M29.7897 83.16C29.7897 83.772 29.6692 84.3779 29.435 84.9433C29.2008 85.5087 28.8576 86.0224 28.4248 86.4551C27.9921 86.8878 27.4784 87.2311 26.913 87.4653C26.3477 87.6995 25.7417 87.82 25.1297 87.82C24.5178 87.82 23.9118 87.6995 23.3464 87.4653C22.781 87.2311 22.2673 86.8878 21.8346 86.4551C21.4019 86.0224 21.0586 85.5087 20.8244 84.9433C20.5903 84.3779 20.4697 83.772 20.4697 83.16C20.4697 82.548 20.5903 81.9421 20.8244 81.3767C21.0586 80.8113 21.4019 80.2976 21.8346 79.8649C22.2673 79.4322 22.781 79.0889 23.3464 78.8547C23.9118 78.6205 24.5178 78.5 25.1297 78.5C26.3656 78.5 27.5509 78.991 28.4248 79.8649C29.2988 80.7388 29.7897 81.9241 29.7897 83.16Z" fill="#171717"/>
<path d="M88.8698 83.2205C88.8698 84.4565 88.3788 85.6417 87.5049 86.5157C86.631 87.3896 85.4457 87.8805 84.2098 87.8805C82.9739 87.8805 81.7886 87.3896 80.9147 86.5157C80.0408 85.6417 79.5498 84.4565 79.5498 83.2205C79.5498 81.9846 80.0408 80.7993 80.9147 79.9254C81.7886 79.0515 82.9739 78.5605 84.2098 78.5605C85.4457 78.5605 86.631 79.0515 87.5049 79.9254C88.3788 80.7993 88.8698 81.9846 88.8698 83.2205Z" fill="#171717"/>
<path d="M9.1802 83.2498C9.1802 83.8394 9.06406 84.4233 8.83842 84.968C8.61277 85.5128 8.28204 86.0077 7.8651 86.4247C7.44817 86.8416 6.9532 87.1723 6.40844 87.398C5.86369 87.6236 5.27983 87.7398 4.6902 87.7398C4.10056 87.7398 3.5167 87.6236 2.97195 87.398C2.42719 87.1723 1.93222 86.8416 1.51529 86.4247C1.09835 86.0077 0.767621 85.5128 0.541977 84.968C0.316333 84.4233 0.200195 83.8394 0.200195 83.2498C0.200195 82.0589 0.673247 80.9169 1.51529 80.0749C2.35732 79.2328 3.49937 78.7598 4.6902 78.7598C5.88102 78.7598 7.02307 79.2328 7.8651 80.0749C8.70714 80.9169 9.1802 82.0589 9.1802 83.2498Z" fill="#E0AC00"/>
<path d="M50.07 83.1893C50.07 83.7684 49.9559 84.3419 49.7343 84.8769C49.5127 85.412 49.1878 85.8981 48.7783 86.3076C48.3688 86.7171 47.8827 87.042 47.3476 87.2636C46.8126 87.4852 46.2391 87.5993 45.66 87.5993C44.4904 87.5993 43.3687 87.1347 42.5417 86.3076C41.7146 85.4806 41.25 84.3589 41.25 83.1893C41.25 82.0197 41.7146 80.898 42.5417 80.071C43.3687 79.2439 44.4904 78.7793 45.66 78.7793C46.2391 78.7793 46.8126 78.8934 47.3476 79.115C47.8827 79.3366 48.3688 79.6614 48.7783 80.071C49.1878 80.4805 49.5127 80.9666 49.7343 81.5017C49.9559 82.0367 50.07 82.6102 50.07 83.1893Z" fill="#E0AC00"/>
<path d="M108.65 82.5598C108.65 83.5676 108.249 84.5341 107.537 85.2468C106.824 85.9594 105.858 86.3598 104.85 86.3598C103.842 86.3598 102.875 85.9594 102.163 85.2468C101.45 84.5341 101.05 83.5676 101.05 82.5598C101.05 81.5519 101.45 80.5854 102.163 79.8728C102.875 79.1601 103.842 78.7598 104.85 78.7598C105.858 78.7598 106.824 79.1601 107.537 79.8728C108.249 80.5854 108.65 81.5519 108.65 82.5598Z" fill="#171717"/>
<path d="M68.9504 82.8292C68.9504 83.792 68.568 84.7153 67.8872 85.396C67.2065 86.0768 66.2832 86.4592 65.3204 86.4592C64.8437 86.4592 64.3717 86.3653 63.9313 86.1829C63.4909 86.0005 63.0907 85.7331 62.7536 85.396C62.4166 85.0589 62.1492 84.6588 61.9667 84.2184C61.7843 83.7779 61.6904 83.3059 61.6904 82.8292C61.6904 82.3525 61.7843 81.8805 61.9667 81.4401C62.1492 80.9997 62.4166 80.5995 62.7536 80.2624C63.0907 79.9253 63.4909 79.658 63.9313 79.4755C64.3717 79.2931 64.8437 79.1992 65.3204 79.1992C66.2832 79.1992 67.2065 79.5817 67.8872 80.2624C68.568 80.9432 68.9504 81.8665 68.9504 82.8292Z" fill="#E0AC00"/>
<path d="M29.8605 102.891C29.8605 103.504 29.7397 104.111 29.505 104.678C29.2703 105.244 28.9263 105.759 28.4927 106.193C28.059 106.627 27.5442 106.971 26.9776 107.205C26.411 107.44 25.8038 107.561 25.1905 107.561C24.5772 107.561 23.97 107.44 23.4034 107.205C22.8368 106.971 22.322 106.627 21.8883 106.193C21.4547 105.759 21.1107 105.244 20.876 104.678C20.6413 104.111 20.5205 103.504 20.5205 102.891C20.5205 101.652 21.0125 100.464 21.8883 99.5885C22.7641 98.7127 23.9519 98.2207 25.1905 98.2207C26.4291 98.2207 27.6169 98.7127 28.4927 99.5885C29.3685 100.464 29.8605 101.652 29.8605 102.891Z" fill="#171717"/>
<path d="M50.3304 102.8C50.3304 104.013 49.8489 105.175 48.9919 106.032C48.1349 106.889 46.9725 107.37 45.7604 107.37C44.5484 107.37 43.386 106.889 42.5289 106.032C41.6719 105.175 41.1904 104.013 41.1904 102.8C41.1904 101.588 41.6719 100.426 42.5289 99.569C43.386 98.712 44.5484 98.2305 45.7604 98.2305C46.9725 98.2305 48.1349 98.712 48.9919 99.569C49.8489 100.426 50.3304 101.588 50.3304 102.8Z" fill="#171717"/>
<path d="M88.8502 102.969C88.8502 104.21 88.3572 105.401 87.4795 106.278C86.6018 107.156 85.4114 107.649 84.1702 107.649C82.929 107.649 81.7386 107.156 80.861 106.278C79.9833 105.401 79.4902 104.21 79.4902 102.969C79.4902 101.728 79.9833 100.537 80.861 99.6598C81.7386 98.7821 82.929 98.2891 84.1702 98.2891C85.4114 98.2891 86.6018 98.7821 87.4795 99.6598C88.3572 100.537 88.8502 101.728 88.8502 102.969Z" fill="#171717"/>
<path d="M9.19965 102.889C9.19965 104.091 8.72238 105.243 7.87284 106.093C7.0233 106.942 5.87108 107.419 4.66965 107.419C3.46822 107.419 2.31599 106.942 1.46645 106.093C0.616914 105.243 0.139648 104.091 0.139648 102.889C0.139648 102.294 0.25682 101.705 0.484474 101.156C0.712128 100.606 1.0458 100.107 1.46645 99.6862C1.8871 99.2655 2.38649 98.9319 2.93609 98.7042C3.4857 98.4765 4.07476 98.3594 4.66965 98.3594C5.26454 98.3594 5.8536 98.4765 6.4032 98.7042C6.95281 98.9319 7.45219 99.2655 7.87284 99.6862C8.29349 100.107 8.62717 100.606 8.85482 101.156C9.08247 101.705 9.19965 102.294 9.19965 102.889Z" fill="#E0AC00"/>
<path d="M9.32 122.76C9.32 123.996 8.82904 125.181 7.95512 126.055C7.0812 126.929 5.89591 127.42 4.66 127.42C3.42409 127.42 2.2388 126.929 1.36488 126.055C0.490964 125.181 0 123.996 0 122.76C0 121.524 0.490964 120.338 1.36488 119.464C2.2388 118.591 3.42409 118.1 4.66 118.1C5.89591 118.1 7.0812 118.591 7.95512 119.464C8.82904 120.338 9.32 121.524 9.32 122.76Z" fill="#171717"/>
<path d="M29.7696 122.76C29.7696 124.004 29.2755 125.197 28.396 126.077C27.5164 126.956 26.3235 127.45 25.0796 127.45C23.8358 127.45 22.6429 126.956 21.7633 126.077C20.8838 125.197 20.3896 124.004 20.3896 122.76C20.3896 121.516 20.8838 120.324 21.7633 119.444C22.6429 118.564 23.8358 118.07 25.0796 118.07C26.3235 118.07 27.5164 118.564 28.396 119.444C29.2755 120.324 29.7696 121.516 29.7696 122.76Z" fill="#171717"/>
<path d="M88.8395 122.76C88.8395 123.375 88.7184 123.983 88.4833 124.551C88.2481 125.119 87.9033 125.635 87.4688 126.069C87.0342 126.504 86.5183 126.849 85.9505 127.084C85.3827 127.319 84.7741 127.44 84.1595 127.44C83.5449 127.44 82.9363 127.319 82.3685 127.084C81.8007 126.849 81.2848 126.504 80.8502 126.069C80.4157 125.635 80.0709 125.119 79.8357 124.551C79.6005 123.983 79.4795 123.375 79.4795 122.76C79.4795 122.145 79.6005 121.537 79.8357 120.969C80.0709 120.401 80.4157 119.885 80.8502 119.451C81.2848 119.016 81.8007 118.672 82.3685 118.436C82.9363 118.201 83.5449 118.08 84.1595 118.08C84.7741 118.08 85.3827 118.201 85.9505 118.436C86.5183 118.672 87.0342 119.016 87.4688 119.451C87.9033 119.885 88.2481 120.401 88.4833 120.969C88.7184 121.537 88.8395 122.145 88.8395 122.76Z" fill="#171717"/>
<path d="M9.34004 144.099C9.34004 143.489 9.21976 142.884 8.98608 142.32C8.75239 141.756 8.40988 141.243 7.97808 140.811C7.54629 140.379 7.03368 140.037 6.46952 139.803C5.90535 139.569 5.30069 139.449 4.69004 139.449C3.45678 139.449 2.27404 139.939 1.40199 140.811C0.529949 141.683 0.0400391 142.866 0.0400391 144.099C0.0400391 145.332 0.529949 146.515 1.40199 147.387C2.27404 148.259 3.45678 148.749 4.69004 148.749C5.30069 148.749 5.90535 148.629 6.46952 148.395C7.03368 148.162 7.54629 147.819 7.97808 147.387C8.40988 146.955 8.75239 146.443 8.98608 145.879C9.21976 145.315 9.34004 144.71 9.34004 144.099Z" stroke="#171717" stroke-width="0.5"/>
<path d="M29.6201 144.139C29.6201 142.945 29.146 141.801 28.3021 140.957C27.4582 140.113 26.3136 139.639 25.1201 139.639C23.9266 139.639 22.7821 140.113 21.9381 140.957C21.0942 141.801 20.6201 142.945 20.6201 144.139C20.6201 145.332 21.0942 146.477 21.9381 147.321C22.7821 148.165 23.9266 148.639 25.1201 148.639C26.3136 148.639 27.4582 148.165 28.3021 147.321C29.146 146.477 29.6201 145.332 29.6201 144.139Z" stroke="#E0AC00" stroke-width="0.5"/>
<path d="M50.1402 144.099C50.1402 142.909 49.6671 141.767 48.8251 140.924C47.983 140.082 46.841 139.609 45.6502 139.609C45.0605 139.609 44.4767 139.726 43.9319 139.951C43.3872 140.177 42.8922 140.508 42.4753 140.924C42.0583 141.341 41.7276 141.836 41.5019 142.381C41.2763 142.926 41.1602 143.51 41.1602 144.099C41.1602 144.689 41.2763 145.273 41.5019 145.818C41.7276 146.362 42.0583 146.857 42.4753 147.274C42.8922 147.691 43.3872 148.022 43.9319 148.248C44.4767 148.473 45.0605 148.589 45.6502 148.589C46.841 148.589 47.983 148.116 48.8251 147.274C49.6671 146.432 50.1402 145.29 50.1402 144.099Z" stroke="#E0AC00" stroke-width="0.5"/>
<path d="M88.6397 144.179C88.6397 142.996 88.1698 141.861 87.3334 141.025C86.497 140.189 85.3626 139.719 84.1797 139.719C82.9969 139.719 81.8624 140.189 81.026 141.025C80.1896 141.861 79.7197 142.996 79.7197 144.179C79.7197 144.764 79.8351 145.344 80.0592 145.886C80.2834 146.427 80.6119 146.918 81.026 147.332C81.4402 147.747 81.9318 148.075 82.473 148.299C83.0141 148.523 83.594 148.639 84.1797 148.639C84.7654 148.639 85.3454 148.523 85.8865 148.299C86.4276 148.075 86.9193 147.747 87.3334 147.332C87.7476 146.918 88.0761 146.427 88.3002 145.886C88.5244 145.344 88.6397 144.764 88.6397 144.179Z" stroke="#E0AC00" stroke-width="0.5"/>
<path d="M29.4298 163.71C29.4298 162.527 28.9599 161.393 28.1235 160.556C27.2871 159.72 26.1526 159.25 24.9698 159.25C23.7869 159.25 22.6525 159.72 21.8161 160.556C20.9797 161.393 20.5098 162.527 20.5098 163.71C20.5098 164.893 20.9797 166.027 21.8161 166.864C22.6525 167.7 23.7869 168.17 24.9698 168.17C26.1526 168.17 27.2871 167.7 28.1235 166.864C28.9599 166.027 29.4298 164.893 29.4298 163.71Z" stroke="#E0AC00" stroke-width="0.5"/>
<path d="M50.0396 163.71C50.0396 163.125 49.9245 162.547 49.7009 162.007C49.4773 161.467 49.1495 160.976 48.7363 160.563C48.3231 160.15 47.8325 159.822 47.2926 159.598C46.7527 159.375 46.174 159.26 45.5896 159.26C44.4094 159.26 43.2776 159.729 42.443 160.563C41.6085 161.398 41.1396 162.53 41.1396 163.71C41.1396 164.89 41.6085 166.022 42.443 166.856C43.2776 167.691 44.4094 168.16 45.5896 168.16C46.174 168.16 46.7527 168.045 47.2926 167.821C47.8325 167.597 48.3231 167.27 48.7363 166.856C49.1495 166.443 49.4773 165.953 49.7009 165.413C49.9245 164.873 50.0396 164.294 50.0396 163.71Z" stroke="#E0AC00" stroke-width="0.5"/>
<path d="M9.19051 163.789C9.19051 162.606 8.72062 161.472 7.8842 160.635C7.04779 159.799 5.91337 159.329 4.73051 159.329C3.54764 159.329 2.41322 159.799 1.57681 160.635C0.7404 161.472 0.270508 162.606 0.270508 163.789C0.270508 164.972 0.7404 166.106 1.57681 166.943C2.41322 167.779 3.54764 168.249 4.73051 168.249C5.91337 168.249 7.04779 167.779 7.8842 166.943C8.72062 166.106 9.19051 164.972 9.19051 163.789Z" stroke="#E0AC00" stroke-width="0.5"/>
<path d="M88.6797 163.74C88.6797 162.552 88.2077 161.412 87.3676 160.572C86.5274 159.732 85.3879 159.26 84.1997 159.26C83.0116 159.26 81.872 159.732 81.0319 160.572C80.1917 161.412 79.7197 162.552 79.7197 163.74C79.7197 164.928 80.1917 166.067 81.0319 166.908C81.872 167.748 83.0116 168.22 84.1997 168.22C85.3879 168.22 86.5274 167.748 87.3676 166.908C88.2077 166.067 88.6797 164.928 88.6797 163.74Z" stroke="#E0AC00" stroke-width="0.5"/>
<path d="M68.8899 163.749C68.8899 162.786 68.5074 161.863 67.8267 161.182C67.1459 160.502 66.2226 160.119 65.2599 160.119C64.2972 160.119 63.3738 160.502 62.6931 161.182C62.0123 161.863 61.6299 162.786 61.6299 163.749C61.6299 164.712 62.0123 165.635 62.6931 166.316C63.3738 166.997 64.2972 167.379 65.2599 167.379C66.2226 167.379 67.1459 166.997 67.8267 166.316C68.5074 165.635 68.8899 164.712 68.8899 163.749Z" stroke="#E0AC00" stroke-width="0.5"/>
<path d="M9.1602 183.23C9.1602 182.042 8.6882 180.902 7.84803 180.062C7.00787 179.222 5.86836 178.75 4.68019 178.75C3.49203 178.75 2.35252 179.222 1.51236 180.062C0.672195 180.902 0.200195 182.042 0.200195 183.23C0.200195 183.818 0.316073 184.401 0.541214 184.944C0.766355 185.488 1.09635 185.982 1.51236 186.398C1.92836 186.814 2.42223 187.144 2.96577 187.369C3.50931 187.594 4.09187 187.71 4.68019 187.71C5.26852 187.71 5.85108 187.594 6.39462 187.369C6.93816 187.144 7.43203 186.814 7.84803 186.398C8.26404 185.982 8.59403 185.488 8.81917 184.944C9.04431 184.401 9.1602 183.818 9.1602 183.23Z" stroke="#E0AC00" stroke-width="0.5"/>
<path d="M29.68 183.258C29.68 182.036 29.1943 180.863 28.3297 179.999C27.4652 179.134 26.2926 178.648 25.07 178.648C23.8473 178.648 22.6747 179.134 21.8102 179.999C20.9457 180.863 20.46 182.036 20.46 183.258C20.46 184.481 20.9457 185.654 21.8102 186.518C22.6747 187.383 23.8473 187.868 25.07 187.868C26.2926 187.868 27.4652 187.383 28.3297 186.518C29.1943 185.654 29.68 184.481 29.68 183.258Z" stroke="#171717" stroke-width="0.5"/>
<path d="M50.1203 183.26C50.1203 182.679 50.0059 182.105 49.7838 181.568C49.5617 181.032 49.2361 180.545 48.8257 180.134C48.4152 179.724 47.928 179.398 47.3917 179.176C46.8555 178.954 46.2807 178.84 45.7003 178.84C44.528 178.84 43.4038 179.306 42.5749 180.134C41.7459 180.963 41.2803 182.088 41.2803 183.26C41.2803 183.84 41.3946 184.415 41.6167 184.951C41.8388 185.488 42.1644 185.975 42.5749 186.385C42.9853 186.796 43.4726 187.121 44.0088 187.343C44.5451 187.566 45.1198 187.68 45.7003 187.68C46.2807 187.68 46.8555 187.566 47.3917 187.343C47.928 187.121 48.4152 186.796 48.8257 186.385C49.2361 185.975 49.5617 185.488 49.7838 184.951C50.0059 184.415 50.1203 183.84 50.1203 183.26Z" stroke="#E0AC00" stroke-width="0.5"/>
<path d="M88.6105 183.329C88.6105 182.151 88.1427 181.022 87.31 180.189C86.4774 179.356 85.348 178.889 84.1705 178.889C82.9929 178.889 81.8636 179.356 81.0309 180.189C80.1983 181.022 79.7305 182.151 79.7305 183.329C79.7305 184.506 80.1983 185.636 81.0309 186.468C81.8636 187.301 82.9929 187.769 84.1705 187.769C85.348 187.769 86.4774 187.301 87.31 186.468C88.1427 185.636 88.6105 184.506 88.6105 183.329Z" stroke="#E0AC00" stroke-width="0.5"/>
<path d="M9.34004 144.099C9.34004 144.71 9.21976 145.315 8.98608 145.879C8.75239 146.443 8.40988 146.955 7.97808 147.387C7.54629 147.819 7.03368 148.162 6.46952 148.395C5.90535 148.629 5.30069 148.749 4.69004 148.749C3.45678 148.749 2.27404 148.259 1.40199 147.387C0.529949 146.515 0.0400391 145.332 0.0400391 144.099C0.0400391 142.866 0.529949 141.683 1.40199 140.811C2.27404 139.939 3.45678 139.449 4.69004 139.449C5.30069 139.449 5.90535 139.569 6.46952 139.803C7.03368 140.037 7.54629 140.379 7.97808 140.811C8.40988 141.243 8.75239 141.756 8.98608 142.32C9.21976 142.884 9.34004 143.489 9.34004 144.099Z" fill="#171717"/>
<path d="M29.6201 144.139C29.6201 145.332 29.146 146.477 28.3021 147.321C27.4582 148.165 26.3136 148.639 25.1201 148.639C23.9266 148.639 22.7821 148.165 21.9381 147.321C21.0942 146.477 20.6201 145.332 20.6201 144.139C20.6201 142.945 21.0942 141.801 21.9381 140.957C22.7821 140.113 23.9266 139.639 25.1201 139.639C26.3136 139.639 27.4582 140.113 28.3021 140.957C29.146 141.801 29.6201 142.945 29.6201 144.139Z" fill="#E0AC00"/>
<path d="M50.1402 144.099C50.1402 145.29 49.6671 146.432 48.8251 147.274C47.983 148.116 46.841 148.589 45.6502 148.589C45.0605 148.589 44.4767 148.473 43.9319 148.248C43.3872 148.022 42.8922 147.691 42.4753 147.274C42.0583 146.857 41.7276 146.362 41.5019 145.818C41.2763 145.273 41.1602 144.689 41.1602 144.099C41.1602 143.51 41.2763 142.926 41.5019 142.381C41.7276 141.836 42.0583 141.341 42.4753 140.924C42.8922 140.508 43.3872 140.177 43.9319 139.951C44.4767 139.726 45.0605 139.609 45.6502 139.609C46.841 139.609 47.983 140.082 48.8251 140.924C49.6671 141.767 50.1402 142.909 50.1402 144.099Z" fill="#E0AC00"/>
<path d="M88.6397 144.179C88.6397 144.764 88.5244 145.344 88.3002 145.886C88.0761 146.427 87.7476 146.918 87.3334 147.332C86.9193 147.747 86.4276 148.075 85.8865 148.299C85.3454 148.523 84.7654 148.639 84.1797 148.639C83.594 148.639 83.0141 148.523 82.473 148.299C81.9318 148.075 81.4402 147.747 81.026 147.332C80.6119 146.918 80.2834 146.427 80.0592 145.886C79.8351 145.344 79.7197 144.764 79.7197 144.179C79.7197 142.996 80.1896 141.861 81.026 141.025C81.8624 140.189 82.9969 139.719 84.1797 139.719C85.3626 139.719 86.497 140.189 87.3334 141.025C88.1698 141.861 88.6397 142.996 88.6397 144.179Z" fill="#E0AC00"/>
<path d="M29.4298 163.71C29.4298 164.893 28.9599 166.027 28.1235 166.864C27.2871 167.7 26.1526 168.17 24.9698 168.17C23.7869 168.17 22.6525 167.7 21.8161 166.864C20.9797 166.027 20.5098 164.893 20.5098 163.71C20.5098 162.527 20.9797 161.393 21.8161 160.556C22.6525 159.72 23.7869 159.25 24.9698 159.25C26.1526 159.25 27.2871 159.72 28.1235 160.556C28.9599 161.393 29.4298 162.527 29.4298 163.71Z" fill="#E0AC00"/>
<path d="M50.0396 163.71C50.0396 164.294 49.9245 164.873 49.7009 165.413C49.4773 165.953 49.1495 166.443 48.7363 166.856C48.3231 167.27 47.8325 167.597 47.2926 167.821C46.7527 168.045 46.174 168.16 45.5896 168.16C44.4094 168.16 43.2776 167.691 42.443 166.856C41.6085 166.022 41.1396 164.89 41.1396 163.71C41.1396 162.53 41.6085 161.398 42.443 160.563C43.2776 159.729 44.4094 159.26 45.5896 159.26C46.174 159.26 46.7527 159.375 47.2926 159.598C47.8325 159.822 48.3231 160.15 48.7363 160.563C49.1495 160.976 49.4773 161.467 49.7009 162.007C49.9245 162.547 50.0396 163.125 50.0396 163.71Z" fill="#E0AC00"/>
<path d="M9.19051 163.789C9.19051 164.972 8.72062 166.106 7.8842 166.943C7.04779 167.779 5.91337 168.249 4.73051 168.249C3.54764 168.249 2.41322 167.779 1.57681 166.943C0.7404 166.106 0.270508 164.972 0.270508 163.789C0.270508 162.606 0.7404 161.472 1.57681 160.635C2.41322 159.799 3.54764 159.329 4.73051 159.329C5.91337 159.329 7.04779 159.799 7.8842 160.635C8.72062 161.472 9.19051 162.606 9.19051 163.789Z" fill="#E0AC00"/>
<path d="M88.6797 163.74C88.6797 164.928 88.2077 166.067 87.3676 166.908C86.5274 167.748 85.3879 168.22 84.1997 168.22C83.0116 168.22 81.872 167.748 81.0319 166.908C80.1917 166.067 79.7197 164.928 79.7197 163.74C79.7197 162.552 80.1917 161.412 81.0319 160.572C81.872 159.732 83.0116 159.26 84.1997 159.26C85.3879 159.26 86.5274 159.732 87.3676 160.572C88.2077 161.412 88.6797 162.552 88.6797 163.74Z" fill="#E0AC00"/>
<path d="M68.8899 163.749C68.8899 164.712 68.5074 165.635 67.8267 166.316C67.1459 166.997 66.2226 167.379 65.2599 167.379C64.2972 167.379 63.3738 166.997 62.6931 166.316C62.0123 165.635 61.6299 164.712 61.6299 163.749C61.6299 162.786 62.0123 161.863 62.6931 161.182C63.3738 160.502 64.2972 160.119 65.2599 160.119C66.2226 160.119 67.1459 160.502 67.8267 161.182C68.5074 161.863 68.8899 162.786 68.8899 163.749Z" fill="#E0AC00"/>
<path d="M9.1602 183.23C9.1602 183.818 9.04432 184.401 8.81917 184.944C8.59403 185.488 8.26404 185.982 7.84803 186.398C7.43203 186.814 6.93816 187.144 6.39462 187.369C5.85108 187.594 5.26852 187.71 4.68019 187.71C4.09187 187.71 3.50931 187.594 2.96577 187.369C2.42223 187.144 1.92836 186.814 1.51236 186.398C1.09635 185.982 0.766355 185.488 0.541214 184.944C0.316073 184.401 0.200195 183.818 0.200195 183.23C0.200195 182.042 0.672195 180.902 1.51236 180.062C2.35252 179.222 3.49202 178.75 4.68019 178.75C5.86836 178.75 7.00787 179.222 7.84803 180.062C8.6882 180.902 9.1602 182.042 9.1602 183.23Z" fill="#E0AC00"/>
<path d="M29.68 183.258C29.68 184.481 29.1943 185.654 28.3297 186.518C27.4652 187.383 26.2926 187.868 25.07 187.868C23.8473 187.868 22.6747 187.383 21.8102 186.518C20.9457 185.654 20.46 184.481 20.46 183.258C20.46 182.036 20.9457 180.863 21.8102 179.999C22.6747 179.134 23.8473 178.648 25.07 178.648C26.2926 178.648 27.4652 179.134 28.3297 179.999C29.1943 180.863 29.68 182.036 29.68 183.258Z" fill="#171717"/>
<path d="M50.1203 183.26C50.1203 183.84 50.0059 184.415 49.7838 184.951C49.5617 185.488 49.2361 185.975 48.8257 186.385C48.4152 186.796 47.928 187.121 47.3917 187.343C46.8555 187.566 46.2807 187.68 45.7003 187.68C45.1198 187.68 44.5451 187.566 44.0088 187.343C43.4726 187.121 42.9853 186.796 42.5749 186.385C42.1644 185.975 41.8388 185.488 41.6167 184.951C41.3946 184.415 41.2803 183.84 41.2803 183.26C41.2803 182.088 41.7459 180.963 42.5749 180.134C43.4038 179.306 44.528 178.84 45.7003 178.84C46.2807 178.84 46.8555 178.954 47.3917 179.176C47.928 179.398 48.4152 179.724 48.8257 180.134C49.2361 180.545 49.5617 181.032 49.7838 181.568C50.0059 182.105 50.1203 182.679 50.1203 183.26Z" fill="#E0AC00"/>
<path d="M88.6095 183.329C88.6095 184.506 88.1417 185.636 87.3091 186.468C86.4764 187.301 85.3471 187.769 84.1695 187.769C82.9919 187.769 81.8626 187.301 81.0299 186.468C80.1973 185.636 79.7295 184.506 79.7295 183.329C79.7295 182.151 80.1973 181.022 81.0299 180.189C81.8626 179.356 82.9919 178.889 84.1695 178.889C85.3471 178.889 86.4764 179.356 87.3091 180.189C88.1417 181.022 88.6095 182.151 88.6095 183.329Z" fill="#E0AC00"/>
</g>
<g clip-path="url(#clip2_13604_1297)">
<path d="M1250.21 6.2557C1250.21 5.01979 1250.7 3.8345 1251.58 2.96058C1252.45 2.08666 1253.63 1.5957 1254.87 1.5957C1255.48 1.5957 1256.09 1.71624 1256.65 1.95042C1257.22 2.18461 1257.73 2.52786 1258.17 2.96058C1258.6 3.3933 1258.94 3.90702 1259.18 4.4724C1259.41 5.03777 1259.53 5.64374 1259.53 6.2557C1259.53 6.86766 1259.41 7.47362 1259.18 8.039C1258.94 8.60438 1258.6 9.1181 1258.17 9.55082C1257.73 9.98354 1257.22 10.3268 1256.65 10.561C1256.09 10.7952 1255.48 10.9157 1254.87 10.9157C1254.26 10.9157 1253.65 10.7952 1253.09 10.561C1252.52 10.3268 1252.01 9.98354 1251.58 9.55082C1251.14 9.1181 1250.8 8.60438 1250.56 8.039C1250.33 7.47362 1250.21 6.86766 1250.21 6.2557Z" stroke="#171717" stroke-width="0.5"/>
<path d="M1191.13 6.31625C1191.13 5.08034 1191.62 3.89505 1192.5 3.02113C1193.37 2.14721 1194.55 1.65625 1195.79 1.65625C1197.03 1.65625 1198.21 2.14721 1199.09 3.02113C1199.96 3.89505 1200.45 5.08034 1200.45 6.31625C1200.45 7.55215 1199.96 8.73745 1199.09 9.61137C1198.21 10.4853 1197.03 10.9762 1195.79 10.9762C1194.55 10.9762 1193.37 10.4853 1192.5 9.61137C1191.62 8.73745 1191.13 7.55215 1191.13 6.31625Z" stroke="#171717" stroke-width="0.5"/>
<path d="M1270.82 6.34547C1270.82 5.15465 1271.29 4.0126 1272.13 3.17056C1272.98 2.32852 1274.12 1.85547 1275.31 1.85547C1276.5 1.85547 1277.64 2.32852 1278.48 3.17056C1279.33 4.0126 1279.8 5.15465 1279.8 6.34547C1279.8 6.93511 1279.68 7.51897 1279.46 8.06372C1279.23 8.60847 1278.9 9.10344 1278.48 9.52038C1278.07 9.93731 1277.57 10.268 1277.03 10.4937C1276.48 10.7193 1275.9 10.8355 1275.31 10.8355C1274.72 10.8355 1274.14 10.7193 1273.59 10.4937C1273.05 10.268 1272.55 9.93731 1272.13 9.52038C1271.72 9.10344 1271.39 8.60847 1271.16 8.06372C1270.94 7.51897 1270.82 6.93511 1270.82 6.34547Z" stroke="#E0AC00" stroke-width="0.5"/>
<path d="M1229.93 6.285C1229.93 5.70587 1230.04 5.13241 1230.27 4.59737C1230.49 4.06232 1230.81 3.57616 1231.22 3.16666C1231.63 2.75715 1232.12 2.43231 1232.65 2.21069C1233.19 1.98906 1233.76 1.875 1234.34 1.875C1235.51 1.875 1236.63 2.33962 1237.46 3.16666C1238.29 3.99369 1238.75 5.11539 1238.75 6.285C1238.75 7.4546 1238.29 8.5763 1237.46 9.40334C1236.63 10.2304 1235.51 10.695 1234.34 10.695C1233.76 10.695 1233.19 10.5809 1232.65 10.3593C1232.12 10.1377 1231.63 9.81284 1231.22 9.40334C1230.81 8.99383 1230.49 8.50768 1230.27 7.97263C1230.04 7.43759 1229.93 6.86413 1229.93 6.285Z" stroke="#E0AC00" stroke-width="0.5"/>
<path d="M1171.35 5.65547C1171.35 4.64765 1171.75 3.68111 1172.46 2.96847C1173.18 2.25583 1174.14 1.85547 1175.15 1.85547C1176.16 1.85547 1177.12 2.25583 1177.84 2.96847C1178.55 3.68111 1178.95 4.64765 1178.95 5.65547C1178.95 6.66329 1178.55 7.62984 1177.84 8.34248C1177.12 9.05511 1176.16 9.45547 1175.15 9.45547C1174.14 9.45547 1173.18 9.05511 1172.46 8.34248C1171.75 7.62984 1171.35 6.66329 1171.35 5.65547Z" stroke="#171717" stroke-width="0.5"/>
<path d="M1211.05 5.92492C1211.05 4.96218 1211.43 4.03888 1212.11 3.35812C1212.79 2.67737 1213.72 2.29492 1214.68 2.29492C1215.16 2.29492 1215.63 2.38881 1216.07 2.57124C1216.51 2.75366 1216.91 3.02105 1217.25 3.35812C1217.58 3.6952 1217.85 4.09537 1218.03 4.53578C1218.22 4.97619 1218.31 5.44822 1218.31 5.92492C1218.31 6.40162 1218.22 6.87365 1218.03 7.31406C1217.85 7.75448 1217.58 8.15465 1217.25 8.49172C1216.91 8.8288 1216.51 9.09618 1216.07 9.2786C1215.63 9.46103 1215.16 9.55492 1214.68 9.55492C1213.72 9.55492 1212.79 9.17248 1212.11 8.49172C1211.43 7.81097 1211.05 6.88765 1211.05 5.92492Z" stroke="#E0AC00" stroke-width="0.5"/>
<path d="M1250.14 25.9864C1250.14 24.7479 1250.63 23.56 1251.51 22.6842C1252.38 21.8084 1253.57 21.3164 1254.81 21.3164C1256.05 21.3164 1257.24 21.8084 1258.11 22.6842C1258.99 23.56 1259.48 24.7479 1259.48 25.9864C1259.48 26.5997 1259.36 27.2069 1259.12 27.7735C1258.89 28.3401 1258.55 28.8549 1258.11 29.2886C1257.68 29.7222 1257.16 30.0662 1256.6 30.3009C1256.03 30.5356 1255.42 30.6564 1254.81 30.6564C1254.2 30.6564 1253.59 30.5356 1253.02 30.3009C1252.46 30.0662 1251.94 29.7222 1251.51 29.2886C1251.07 28.8549 1250.73 28.3401 1250.49 27.7735C1250.26 27.2069 1250.14 26.5997 1250.14 25.9864Z" stroke="#171717" stroke-width="0.5"/>
<path d="M1229.67 25.8962C1229.67 24.6841 1230.15 23.5217 1231.01 22.6647C1231.87 21.8077 1233.03 21.3262 1234.24 21.3262C1235.45 21.3262 1236.61 21.8077 1237.47 22.6647C1238.33 23.5217 1238.81 24.6841 1238.81 25.8962C1238.81 27.1082 1238.33 28.2706 1237.47 29.1277C1236.61 29.9847 1235.45 30.4662 1234.24 30.4662C1233.03 30.4662 1231.87 29.9847 1231.01 29.1277C1230.15 28.2706 1229.67 27.1082 1229.67 25.8962Z" stroke="#171717" stroke-width="0.5"/>
<path d="M1191.15 26.0648C1191.15 24.8236 1191.64 23.6332 1192.52 22.7555C1193.4 21.8778 1194.59 21.3848 1195.83 21.3848C1197.07 21.3848 1198.26 21.8778 1199.14 22.7555C1200.02 23.6332 1200.51 24.8236 1200.51 26.0648C1200.51 27.306 1200.02 28.4964 1199.14 29.374C1198.26 30.2517 1197.07 30.7448 1195.83 30.7448C1194.59 30.7448 1193.4 30.2517 1192.52 29.374C1191.64 28.4964 1191.15 27.306 1191.15 26.0648Z" stroke="#171717" stroke-width="0.5"/>
<path d="M1270.8 25.9851C1270.8 25.3902 1270.92 24.8011 1271.15 24.2515C1271.37 23.7019 1271.71 23.2025 1272.13 22.7819C1272.55 22.3612 1273.05 22.0276 1273.6 21.7999C1274.15 21.5723 1274.74 21.4551 1275.33 21.4551C1275.93 21.4551 1276.51 21.5723 1277.06 21.7999C1277.61 22.0276 1278.11 22.3612 1278.53 22.7819C1278.95 23.2025 1279.29 23.7019 1279.52 24.2515C1279.74 24.8011 1279.86 25.3902 1279.86 25.9851C1279.86 27.1865 1279.38 28.3387 1278.53 29.1883C1277.68 30.0378 1276.53 30.5151 1275.33 30.5151C1274.13 30.5151 1272.98 30.0378 1272.13 29.1883C1271.28 28.3387 1270.8 27.1865 1270.8 25.9851Z" stroke="#E0AC00" stroke-width="0.5"/>
<path d="M1270.68 45.8553C1270.68 44.6194 1271.17 43.4341 1272.04 42.5602C1272.92 41.6863 1274.1 41.1953 1275.34 41.1953C1276.58 41.1953 1277.76 41.6863 1278.64 42.5602C1279.51 43.4341 1280 44.6194 1280 45.8553C1280 47.0912 1279.51 48.2765 1278.64 49.1504C1277.76 50.0244 1276.58 50.5153 1275.34 50.5153C1274.1 50.5153 1272.92 50.0244 1272.04 49.1504C1271.17 48.2765 1270.68 47.0912 1270.68 45.8553Z" stroke="#171717" stroke-width="0.5"/>
<path d="M1250.23 45.856C1250.23 44.6122 1250.72 43.4192 1251.6 42.5397C1252.48 41.6601 1253.68 41.166 1254.92 41.166C1256.16 41.166 1257.36 41.6601 1258.24 42.5397C1259.12 43.4192 1259.61 44.6122 1259.61 45.856C1259.61 47.0999 1259.12 48.2928 1258.24 49.1723C1257.36 50.0519 1256.16 50.546 1254.92 50.546C1253.68 50.546 1252.48 50.0519 1251.6 49.1723C1250.72 48.2928 1250.23 47.0999 1250.23 45.856Z" stroke="#171717" stroke-width="0.5"/>
<path d="M1191.16 45.8558C1191.16 45.2412 1191.28 44.6326 1191.52 44.0648C1191.75 43.497 1192.1 42.9811 1192.53 42.5465C1192.96 42.1119 1193.48 41.7672 1194.05 41.532C1194.62 41.2968 1195.22 41.1758 1195.84 41.1758C1196.45 41.1758 1197.06 41.2968 1197.63 41.532C1198.2 41.7672 1198.71 42.1119 1199.15 42.5465C1199.58 42.9811 1199.93 43.497 1200.16 44.0648C1200.4 44.6326 1200.52 45.2412 1200.52 45.8558C1200.52 46.4704 1200.4 47.0789 1200.16 47.6467C1199.93 48.2145 1199.58 48.7305 1199.15 49.165C1198.71 49.5996 1198.2 49.9443 1197.63 50.1795C1197.06 50.4147 1196.45 50.5358 1195.84 50.5358C1195.22 50.5358 1194.62 50.4147 1194.05 50.1795C1193.48 49.9443 1192.96 49.5996 1192.53 49.165C1192.1 48.7305 1191.75 48.2145 1191.52 47.6467C1191.28 47.0789 1191.16 46.4704 1191.16 45.8558Z" stroke="#171717" stroke-width="0.5"/>
<path d="M1250.21 6.2557C1250.21 6.86766 1250.33 7.47362 1250.56 8.039C1250.8 8.60438 1251.14 9.1181 1251.58 9.55082C1252.01 9.98354 1252.52 10.3268 1253.09 10.561C1253.65 10.7952 1254.26 10.9157 1254.87 10.9157C1255.48 10.9157 1256.09 10.7952 1256.65 10.561C1257.22 10.3268 1257.73 9.98354 1258.17 9.55082C1258.6 9.1181 1258.94 8.60438 1259.18 8.039C1259.41 7.47362 1259.53 6.86766 1259.53 6.2557C1259.53 5.64374 1259.41 5.03777 1259.18 4.4724C1258.94 3.90702 1258.6 3.3933 1258.17 2.96058C1257.73 2.52786 1257.22 2.18461 1256.65 1.95042C1256.09 1.71624 1255.48 1.5957 1254.87 1.5957C1253.63 1.5957 1252.45 2.08666 1251.58 2.96058C1250.7 3.8345 1250.21 5.01979 1250.21 6.2557Z" fill="#171717"/>
<path d="M1191.13 6.31625C1191.13 7.55216 1191.62 8.73745 1192.5 9.61137C1193.37 10.4853 1194.55 10.9762 1195.79 10.9762C1197.03 10.9762 1198.21 10.4853 1199.09 9.61137C1199.96 8.73745 1200.45 7.55216 1200.45 6.31625C1200.45 5.08034 1199.96 3.89505 1199.09 3.02113C1198.21 2.14721 1197.03 1.65625 1195.79 1.65625C1194.55 1.65625 1193.37 2.14721 1192.5 3.02113C1191.62 3.89505 1191.13 5.08034 1191.13 6.31625Z" fill="#171717"/>
<path d="M1270.82 6.34547C1270.82 6.93511 1270.94 7.51897 1271.16 8.06372C1271.39 8.60847 1271.72 9.10344 1272.13 9.52038C1272.55 9.93731 1273.05 10.268 1273.59 10.4937C1274.14 10.7193 1274.72 10.8355 1275.31 10.8355C1275.9 10.8355 1276.48 10.7193 1277.03 10.4937C1277.57 10.268 1278.07 9.93731 1278.48 9.52038C1278.9 9.10344 1279.23 8.60847 1279.46 8.06372C1279.68 7.51897 1279.8 6.93511 1279.8 6.34547C1279.8 5.15465 1279.33 4.0126 1278.48 3.17056C1277.64 2.32852 1276.5 1.85547 1275.31 1.85547C1274.12 1.85547 1272.98 2.32852 1272.13 3.17056C1271.29 4.0126 1270.82 5.15465 1270.82 6.34547Z" fill="#E0AC00"/>
<path d="M1229.93 6.285C1229.93 6.86413 1230.04 7.43759 1230.27 7.97263C1230.49 8.50768 1230.81 8.99383 1231.22 9.40334C1231.63 9.81284 1232.12 10.1377 1232.65 10.3593C1233.19 10.5809 1233.76 10.695 1234.34 10.695C1235.51 10.695 1236.63 10.2304 1237.46 9.40334C1238.29 8.5763 1238.75 7.4546 1238.75 6.285C1238.75 5.11539 1238.29 3.99369 1237.46 3.16666C1236.63 2.33962 1235.51 1.875 1234.34 1.875C1233.76 1.875 1233.19 1.98906 1232.65 2.21069C1232.12 2.43231 1231.63 2.75715 1231.22 3.16666C1230.81 3.57616 1230.49 4.06232 1230.27 4.59737C1230.04 5.13241 1229.93 5.70587 1229.93 6.285Z" fill="#E0AC00"/>
<path d="M1171.35 5.65547C1171.35 6.66329 1171.75 7.62984 1172.46 8.34248C1173.18 9.05511 1174.14 9.45547 1175.15 9.45547C1176.16 9.45547 1177.12 9.05511 1177.84 8.34248C1178.55 7.62984 1178.95 6.66329 1178.95 5.65547C1178.95 4.64765 1178.55 3.68111 1177.84 2.96847C1177.12 2.25583 1176.16 1.85547 1175.15 1.85547C1174.14 1.85547 1173.18 2.25583 1172.46 2.96847C1171.75 3.68111 1171.35 4.64765 1171.35 5.65547Z" fill="#171717"/>
<path d="M1211.05 5.92492C1211.05 6.88765 1211.43 7.81097 1212.11 8.49172C1212.79 9.17248 1213.72 9.55492 1214.68 9.55492C1215.16 9.55492 1215.63 9.46103 1216.07 9.2786C1216.51 9.09618 1216.91 8.8288 1217.25 8.49172C1217.58 8.15465 1217.85 7.75448 1218.03 7.31406C1218.22 6.87365 1218.31 6.40162 1218.31 5.92492C1218.31 5.44822 1218.22 4.97619 1218.03 4.53578C1217.85 4.09537 1217.58 3.6952 1217.25 3.35812C1216.91 3.02105 1216.51 2.75366 1216.07 2.57124C1215.63 2.38881 1215.16 2.29492 1214.68 2.29492C1213.72 2.29492 1212.79 2.67737 1212.11 3.35812C1211.43 4.03888 1211.05 4.96218 1211.05 5.92492Z" fill="#E0AC00"/>
<path d="M1250.14 25.9864C1250.14 26.5997 1250.26 27.2069 1250.49 27.7735C1250.73 28.3401 1251.07 28.8549 1251.51 29.2886C1251.94 29.7222 1252.46 30.0662 1253.02 30.3009C1253.59 30.5356 1254.2 30.6564 1254.81 30.6564C1255.42 30.6564 1256.03 30.5356 1256.6 30.3009C1257.16 30.0662 1257.68 29.7222 1258.11 29.2886C1258.55 28.8549 1258.89 28.3401 1259.12 27.7735C1259.36 27.2069 1259.48 26.5997 1259.48 25.9864C1259.48 24.7479 1258.99 23.56 1258.11 22.6842C1257.24 21.8084 1256.05 21.3164 1254.81 21.3164C1253.57 21.3164 1252.38 21.8084 1251.51 22.6842C1250.63 23.56 1250.14 24.7479 1250.14 25.9864Z" fill="#171717"/>
<path d="M1229.67 25.8962C1229.67 27.1082 1230.15 28.2706 1231.01 29.1277C1231.87 29.9847 1233.03 30.4662 1234.24 30.4662C1235.45 30.4662 1236.61 29.9847 1237.47 29.1277C1238.33 28.2706 1238.81 27.1082 1238.81 25.8962C1238.81 24.6841 1238.33 23.5217 1237.47 22.6647C1236.61 21.8077 1235.45 21.3262 1234.24 21.3262C1233.03 21.3262 1231.87 21.8077 1231.01 22.6647C1230.15 23.5217 1229.67 24.6841 1229.67 25.8962Z" fill="#171717"/>
<path d="M1191.15 26.0648C1191.15 27.306 1191.64 28.4964 1192.52 29.374C1193.4 30.2517 1194.59 30.7448 1195.83 30.7448C1197.07 30.7448 1198.26 30.2517 1199.14 29.374C1200.02 28.4964 1200.51 27.306 1200.51 26.0648C1200.51 24.8236 1200.02 23.6332 1199.14 22.7555C1198.26 21.8778 1197.07 21.3848 1195.83 21.3848C1194.59 21.3848 1193.4 21.8778 1192.52 22.7555C1191.64 23.6332 1191.15 24.8236 1191.15 26.0648Z" fill="#171717"/>
<path d="M1270.8 25.9851C1270.8 27.1865 1271.28 28.3387 1272.13 29.1883C1272.98 30.0378 1274.13 30.5151 1275.33 30.5151C1276.53 30.5151 1277.68 30.0378 1278.53 29.1883C1279.38 28.3387 1279.86 27.1865 1279.86 25.9851C1279.86 25.3902 1279.74 24.8011 1279.52 24.2515C1279.29 23.7019 1278.95 23.2025 1278.53 22.7819C1278.11 22.3612 1277.61 22.0276 1277.06 21.7999C1276.51 21.5723 1275.93 21.4551 1275.33 21.4551C1274.74 21.4551 1274.15 21.5723 1273.6 21.7999C1273.05 22.0276 1272.55 22.3612 1272.13 22.7819C1271.71 23.2025 1271.37 23.7019 1271.15 24.2515C1270.92 24.8011 1270.8 25.3902 1270.8 25.9851Z" fill="#E0AC00"/>
<path d="M1270.68 45.8553C1270.68 47.0912 1271.17 48.2765 1272.04 49.1504C1272.92 50.0244 1274.1 50.5153 1275.34 50.5153C1276.58 50.5153 1277.76 50.0244 1278.64 49.1504C1279.51 48.2765 1280 47.0912 1280 45.8553C1280 44.6194 1279.51 43.4341 1278.64 42.5602C1277.76 41.6863 1276.58 41.1953 1275.34 41.1953C1274.1 41.1953 1272.92 41.6863 1272.04 42.5602C1271.17 43.4341 1270.68 44.6194 1270.68 45.8553Z" fill="#171717"/>
<path d="M1250.23 45.856C1250.23 47.0999 1250.72 48.2928 1251.6 49.1723C1252.48 50.0519 1253.68 50.546 1254.92 50.546C1256.16 50.546 1257.36 50.0519 1258.24 49.1723C1259.12 48.2928 1259.61 47.0999 1259.61 45.856C1259.61 44.6122 1259.12 43.4192 1258.24 42.5397C1257.36 41.6601 1256.16 41.166 1254.92 41.166C1253.68 41.166 1252.48 41.6601 1251.6 42.5397C1250.72 43.4192 1250.23 44.6122 1250.23 45.856Z" fill="#171717"/>
<path d="M1191.16 45.8558C1191.16 46.4704 1191.28 47.0789 1191.52 47.6467C1191.75 48.2145 1192.1 48.7305 1192.53 49.165C1192.97 49.5996 1193.48 49.9443 1194.05 50.1795C1194.62 50.4147 1195.23 50.5358 1195.84 50.5358C1196.46 50.5358 1197.06 50.4147 1197.63 50.1795C1198.2 49.9443 1198.72 49.5996 1199.15 49.165C1199.58 48.7305 1199.93 48.2145 1200.16 47.6467C1200.4 47.0789 1200.52 46.4704 1200.52 45.8558C1200.52 45.2412 1200.4 44.6326 1200.16 44.0648C1199.93 43.497 1199.58 42.9811 1199.15 42.5465C1198.72 42.1119 1198.2 41.7672 1197.63 41.532C1197.06 41.2968 1196.46 41.1758 1195.84 41.1758C1195.23 41.1758 1194.62 41.2968 1194.05 41.532C1193.48 41.7672 1192.97 42.1119 1192.53 42.5465C1192.1 42.9811 1191.75 43.497 1191.52 44.0648C1191.28 44.6326 1191.16 45.2412 1191.16 45.8558Z" fill="#171717"/>
<path d="M1270.66 67.1949C1270.66 66.5843 1270.78 65.9796 1271.01 65.4154C1271.25 64.8513 1271.59 64.3387 1272.02 63.9069C1272.45 63.4751 1272.97 63.1326 1273.53 62.8989C1274.09 62.6652 1274.7 62.5449 1275.31 62.5449C1276.54 62.5449 1277.73 63.0348 1278.6 63.9069C1279.47 64.7789 1279.96 65.9617 1279.96 67.1949C1279.96 68.4282 1279.47 69.6109 1278.6 70.483C1277.73 71.355 1276.54 71.8449 1275.31 71.8449C1274.7 71.8449 1274.09 71.7246 1273.53 71.491C1272.97 71.2573 1272.45 70.9148 1272.02 70.483C1271.59 70.0512 1271.25 69.5386 1271.01 68.9744C1270.78 68.4102 1270.66 67.8056 1270.66 67.1949Z" stroke="#171717" stroke-width="0.5"/>
<path d="M1250.38 67.2344C1250.38 66.0409 1250.85 64.8963 1251.7 64.0524C1252.54 63.2085 1253.69 62.7344 1254.88 62.7344C1256.07 62.7344 1257.22 63.2085 1258.06 64.0524C1258.91 64.8963 1259.38 66.0409 1259.38 67.2344C1259.38 68.4278 1258.91 69.5724 1258.06 70.4164C1257.22 71.2603 1256.07 71.7344 1254.88 71.7344C1253.69 71.7344 1252.54 71.2603 1251.7 70.4164C1250.85 69.5724 1250.38 68.4278 1250.38 67.2344Z" stroke="#E0AC00" stroke-width="0.5"/>
<path d="M1229.86 67.1951C1229.86 66.0043 1230.33 64.8622 1231.17 64.0202C1232.02 63.1781 1233.16 62.7051 1234.35 62.7051C1234.94 62.7051 1235.52 62.8212 1236.07 63.0469C1236.61 63.2725 1237.11 63.6032 1237.52 64.0202C1237.94 64.4371 1238.27 64.9321 1238.5 65.4768C1238.72 66.0216 1238.84 66.6054 1238.84 67.1951C1238.84 67.7847 1238.72 68.3686 1238.5 68.9133C1238.27 69.4581 1237.94 69.9531 1237.52 70.37C1237.11 70.7869 1236.61 71.1177 1236.07 71.3433C1235.52 71.5689 1234.94 71.6851 1234.35 71.6851C1233.16 71.6851 1232.02 71.212 1231.17 70.37C1230.33 69.5279 1229.86 68.3859 1229.86 67.1951Z" stroke="#E0AC00" stroke-width="0.5"/>
<path d="M1191.36 67.2745C1191.36 66.0916 1191.83 64.9572 1192.67 64.1208C1193.5 63.2843 1194.64 62.8145 1195.82 62.8145C1197 62.8145 1198.14 63.2843 1198.97 64.1208C1199.81 64.9572 1200.28 66.0916 1200.28 67.2745C1200.28 67.8601 1200.16 68.4401 1199.94 68.9812C1199.72 69.5223 1199.39 70.014 1198.97 70.4282C1198.56 70.8423 1198.07 71.1708 1197.53 71.395C1196.99 71.6191 1196.41 71.7345 1195.82 71.7345C1195.23 71.7345 1194.65 71.6191 1194.11 71.395C1193.57 71.1708 1193.08 70.8423 1192.67 70.4282C1192.25 70.014 1191.92 69.5223 1191.7 68.9812C1191.48 68.4401 1191.36 67.8601 1191.36 67.2745Z" stroke="#E0AC00" stroke-width="0.5"/>
<path d="M1250.57 86.8057C1250.57 85.6228 1251.04 84.4884 1251.88 83.652C1252.71 82.8156 1253.85 82.3457 1255.03 82.3457C1256.21 82.3457 1257.35 82.8156 1258.18 83.652C1259.02 84.4884 1259.49 85.6228 1259.49 86.8057C1259.49 87.9886 1259.02 89.123 1258.18 89.9594C1257.35 90.7958 1256.21 91.2657 1255.03 91.2657C1253.85 91.2657 1252.71 90.7958 1251.88 89.9594C1251.04 89.123 1250.57 87.9886 1250.57 86.8057Z" stroke="#E0AC00" stroke-width="0.5"/>
<path d="M1229.96 86.8055C1229.96 86.2211 1230.08 85.6424 1230.3 85.1025C1230.52 84.5626 1230.85 84.0721 1231.26 83.6588C1231.68 83.2456 1232.17 82.9178 1232.71 82.6942C1233.25 82.4706 1233.83 82.3555 1234.41 82.3555C1235.59 82.3555 1236.72 82.8243 1237.56 83.6588C1238.39 84.4934 1238.86 85.6253 1238.86 86.8055C1238.86 87.9857 1238.39 89.1176 1237.56 89.9521C1236.72 90.7866 1235.59 91.2555 1234.41 91.2555C1233.83 91.2555 1233.25 91.1404 1232.71 90.9167C1232.17 90.6931 1231.68 90.3653 1231.26 89.9521C1230.85 89.5389 1230.52 89.0483 1230.3 88.5084C1230.08 87.9685 1229.96 87.3899 1229.96 86.8055Z" stroke="#E0AC00" stroke-width="0.5"/>
<path d="M1270.81 86.8848C1270.81 85.7019 1271.28 84.5675 1272.12 83.7311C1272.95 82.8947 1274.09 82.4248 1275.27 82.4248C1276.45 82.4248 1277.59 82.8947 1278.42 83.7311C1279.26 84.5675 1279.73 85.7019 1279.73 86.8848C1279.73 88.0677 1279.26 89.2021 1278.42 90.0385C1277.59 90.8749 1276.45 91.3448 1275.27 91.3448C1274.09 91.3448 1272.95 90.8749 1272.12 90.0385C1271.28 89.2021 1270.81 88.0677 1270.81 86.8848Z" stroke="#E0AC00" stroke-width="0.5"/>
<path d="M1191.32 86.8355C1191.32 85.6473 1191.79 84.5078 1192.63 83.6676C1193.47 82.8275 1194.61 82.3555 1195.8 82.3555C1196.99 82.3555 1198.13 82.8275 1198.97 83.6676C1199.81 84.5078 1200.28 85.6473 1200.28 86.8355C1200.28 88.0236 1199.81 89.1631 1198.97 90.0033C1198.13 90.8435 1196.99 91.3155 1195.8 91.3155C1194.61 91.3155 1193.47 90.8435 1192.63 90.0033C1191.79 89.1631 1191.32 88.0236 1191.32 86.8355Z" stroke="#E0AC00" stroke-width="0.5"/>
<path d="M1211.11 86.8448C1211.11 85.8821 1211.49 84.9588 1212.17 84.278C1212.85 83.5973 1213.78 83.2148 1214.74 83.2148C1215.7 83.2148 1216.63 83.5973 1217.31 84.278C1217.99 84.9588 1218.37 85.8821 1218.37 86.8448C1218.37 87.8076 1217.99 88.7309 1217.31 89.4116C1216.63 90.0924 1215.7 90.4748 1214.74 90.4748C1213.78 90.4748 1212.85 90.0924 1212.17 89.4116C1211.49 88.7309 1211.11 87.8076 1211.11 86.8448Z" stroke="#E0AC00" stroke-width="0.5"/>
<path d="M1270.84 106.326C1270.84 105.138 1271.31 103.998 1272.15 103.158C1272.99 102.318 1274.13 101.846 1275.32 101.846C1276.51 101.846 1277.65 102.318 1278.49 103.158C1279.33 103.998 1279.8 105.138 1279.8 106.326C1279.8 106.914 1279.68 107.497 1279.46 108.04C1279.23 108.584 1278.9 109.078 1278.49 109.494C1278.07 109.91 1277.58 110.24 1277.03 110.465C1276.49 110.69 1275.91 110.806 1275.32 110.806C1274.73 110.806 1274.15 110.69 1273.61 110.465C1273.06 110.24 1272.57 109.91 1272.15 109.494C1271.74 109.078 1271.41 108.584 1271.18 108.04C1270.96 107.497 1270.84 106.914 1270.84 106.326Z" stroke="#E0AC00" stroke-width="0.5"/>
<path d="M1250.32 106.354C1250.32 105.131 1250.81 103.959 1251.67 103.094C1252.53 102.23 1253.71 101.744 1254.93 101.744C1256.15 101.744 1257.33 102.23 1258.19 103.094C1259.05 103.959 1259.54 105.131 1259.54 106.354C1259.54 107.577 1259.05 108.749 1258.19 109.614C1257.33 110.478 1256.15 110.964 1254.93 110.964C1253.71 110.964 1252.53 110.478 1251.67 109.614C1250.81 108.749 1250.32 107.577 1250.32 106.354Z" stroke="#171717" stroke-width="0.5"/>
<path d="M1229.88 106.356C1229.88 105.775 1229.99 105.2 1230.22 104.664C1230.44 104.128 1230.76 103.641 1231.17 103.23C1231.58 102.82 1232.07 102.494 1232.61 102.272C1233.14 102.05 1233.72 101.936 1234.3 101.936C1235.47 101.936 1236.6 102.401 1237.43 103.23C1238.25 104.059 1238.72 105.183 1238.72 106.356C1238.72 106.936 1238.61 107.511 1238.38 108.047C1238.16 108.583 1237.84 109.071 1237.43 109.481C1237.01 109.891 1236.53 110.217 1235.99 110.439C1235.45 110.661 1234.88 110.776 1234.3 110.776C1233.72 110.776 1233.14 110.661 1232.61 110.439C1232.07 110.217 1231.58 109.891 1231.17 109.481C1230.76 109.071 1230.44 108.583 1230.22 108.047C1229.99 107.511 1229.88 106.936 1229.88 106.356Z" stroke="#E0AC00" stroke-width="0.5"/>
<path d="M1191.39 106.424C1191.39 105.247 1191.86 104.117 1192.69 103.285C1193.52 102.452 1194.65 101.984 1195.83 101.984C1197.01 101.984 1198.14 102.452 1198.97 103.285C1199.8 104.117 1200.27 105.247 1200.27 106.424C1200.27 107.602 1199.8 108.731 1198.97 109.564C1198.14 110.397 1197.01 110.864 1195.83 110.864C1194.65 110.864 1193.52 110.397 1192.69 109.564C1191.86 108.731 1191.39 107.602 1191.39 106.424Z" stroke="#E0AC00" stroke-width="0.5"/>
<path d="M1191.1 126.034C1191.1 125.415 1191.22 124.801 1191.46 124.228C1191.7 123.656 1192.04 123.135 1192.48 122.697C1192.92 122.259 1193.44 121.911 1194.01 121.674C1194.59 121.437 1195.2 121.314 1195.82 121.314C1196.44 121.314 1197.05 121.437 1197.63 121.674C1198.2 121.911 1198.72 122.259 1199.16 122.697C1199.6 123.135 1199.94 123.656 1200.18 124.228C1200.42 124.801 1200.54 125.415 1200.54 126.034C1200.54 127.286 1200.04 128.487 1199.16 129.372C1198.27 130.257 1197.07 130.754 1195.82 130.754C1194.57 130.754 1193.37 130.257 1192.48 129.372C1191.6 128.487 1191.1 127.286 1191.1 126.034Z" stroke="#171717" stroke-width="0.5"/>
<path d="M1270.8 126.006C1270.8 125.416 1270.92 124.832 1271.14 124.287C1271.37 123.743 1271.7 123.248 1272.12 122.831C1272.53 122.414 1273.03 122.083 1273.57 121.857C1274.12 121.632 1274.7 121.516 1275.29 121.516C1275.88 121.516 1276.46 121.632 1277.01 121.857C1277.55 122.083 1278.05 122.414 1278.47 122.831C1278.88 123.248 1279.21 123.743 1279.44 124.287C1279.66 124.832 1279.78 125.416 1279.78 126.006C1279.78 127.196 1279.31 128.338 1278.47 129.181C1277.62 130.023 1276.48 130.496 1275.29 130.496C1274.1 130.496 1272.96 130.023 1272.12 129.181C1271.27 128.338 1270.8 127.196 1270.8 126.006Z" stroke="#E0AC00" stroke-width="0.5"/>
<path d="M1250.28 126.035C1250.28 124.812 1250.77 123.64 1251.63 122.775C1252.49 121.91 1253.67 121.425 1254.89 121.425C1256.11 121.425 1257.29 121.91 1258.15 122.775C1259.01 123.64 1259.5 124.812 1259.5 126.035C1259.5 127.257 1259.01 128.43 1258.15 129.295C1257.29 130.159 1256.11 130.645 1254.89 130.645C1253.67 130.645 1252.49 130.159 1251.63 129.295C1250.77 128.43 1250.28 127.257 1250.28 126.035Z" stroke="#171717" stroke-width="0.5"/>
<path d="M1229.92 126.075C1229.92 124.908 1230.38 123.789 1231.21 122.964C1232.03 122.138 1233.15 121.675 1234.32 121.675C1235.49 121.675 1236.61 122.138 1237.43 122.964C1238.26 123.789 1238.72 124.908 1238.72 126.075C1238.72 127.242 1238.26 128.361 1237.43 129.186C1236.61 130.011 1235.49 130.475 1234.32 130.475C1233.15 130.475 1232.03 130.011 1231.21 129.186C1230.38 128.361 1229.92 127.242 1229.92 126.075Z" stroke="#E0AC00" stroke-width="0.5"/>
<path d="M1250.21 145.705C1250.21 144.469 1250.7 143.284 1251.58 142.41C1252.45 141.536 1253.63 141.045 1254.87 141.045C1255.48 141.045 1256.09 141.165 1256.65 141.4C1257.22 141.634 1257.73 141.977 1258.17 142.41C1258.6 142.843 1258.94 143.356 1259.18 143.922C1259.41 144.487 1259.53 145.093 1259.53 145.705C1259.53 146.317 1259.41 146.923 1259.18 147.488C1258.94 148.054 1258.6 148.567 1258.17 149C1257.73 149.433 1257.22 149.776 1256.65 150.01C1256.09 150.244 1255.48 150.365 1254.87 150.365C1254.26 150.365 1253.65 150.244 1253.09 150.01C1252.52 149.776 1252.01 149.433 1251.58 149C1251.14 148.567 1250.8 148.054 1250.56 147.488C1250.33 146.923 1250.21 146.317 1250.21 145.705Z" stroke="#171717" stroke-width="0.5"/>
<path d="M1191.13 145.765C1191.13 144.53 1191.62 143.344 1192.5 142.47C1193.37 141.596 1194.55 141.105 1195.79 141.105C1197.03 141.105 1198.21 141.596 1199.09 142.47C1199.96 143.344 1200.45 144.53 1200.45 145.765C1200.45 147.001 1199.96 148.187 1199.09 149.061C1198.21 149.935 1197.03 150.425 1195.79 150.425C1194.55 150.425 1193.37 149.935 1192.5 149.061C1191.62 148.187 1191.13 147.001 1191.13 145.765Z" stroke="#171717" stroke-width="0.5"/>
<path d="M1270.82 145.795C1270.82 144.604 1271.29 143.462 1272.13 142.62C1272.98 141.778 1274.12 141.305 1275.31 141.305C1276.5 141.305 1277.64 141.778 1278.48 142.62C1279.33 143.462 1279.8 144.604 1279.8 145.795C1279.8 146.384 1279.68 146.968 1279.46 147.513C1279.23 148.058 1278.9 148.553 1278.48 148.97C1278.07 149.387 1277.57 149.717 1277.03 149.943C1276.48 150.169 1275.9 150.285 1275.31 150.285C1274.72 150.285 1274.14 150.169 1273.59 149.943C1273.05 149.717 1272.55 149.387 1272.13 148.97C1271.72 148.553 1271.39 148.058 1271.16 147.513C1270.94 146.968 1270.82 146.384 1270.82 145.795Z" stroke="#E0AC00" stroke-width="0.5"/>
<path d="M1229.93 145.734C1229.93 145.155 1230.04 144.582 1230.27 144.047C1230.49 143.512 1230.81 143.025 1231.22 142.616C1231.63 142.206 1232.12 141.882 1232.65 141.66C1233.19 141.438 1233.76 141.324 1234.34 141.324C1235.51 141.324 1236.63 141.789 1237.46 142.616C1238.29 143.443 1238.75 144.565 1238.75 145.734C1238.75 146.904 1238.29 148.026 1237.46 148.853C1236.63 149.68 1235.51 150.144 1234.34 150.144C1233.76 150.144 1233.19 150.03 1232.65 149.809C1232.12 149.587 1231.63 149.262 1231.22 148.853C1230.81 148.443 1230.49 147.957 1230.27 147.422C1230.04 146.887 1229.93 146.313 1229.93 145.734Z" stroke="#E0AC00" stroke-width="0.5"/>
<path d="M1171.35 145.105C1171.35 144.097 1171.75 143.13 1172.46 142.418C1173.18 141.705 1174.14 141.305 1175.15 141.305C1176.16 141.305 1177.12 141.705 1177.84 142.418C1178.55 143.13 1178.95 144.097 1178.95 145.105C1178.95 146.113 1178.55 147.079 1177.84 147.792C1177.12 148.504 1176.16 148.905 1175.15 148.905C1174.14 148.905 1173.18 148.504 1172.46 147.792C1171.75 147.079 1171.35 146.113 1171.35 145.105Z" stroke="#171717" stroke-width="0.5"/>
<path d="M1211.05 145.374C1211.05 144.411 1211.43 143.488 1212.11 142.807C1212.79 142.127 1213.72 141.744 1214.68 141.744C1215.16 141.744 1215.63 141.838 1216.07 142.02C1216.51 142.203 1216.91 142.47 1217.25 142.807C1217.58 143.144 1217.85 143.545 1218.03 143.985C1218.22 144.425 1218.31 144.897 1218.31 145.374C1218.31 145.851 1218.22 146.323 1218.03 146.763C1217.85 147.204 1217.58 147.604 1217.25 147.941C1216.91 148.278 1216.51 148.545 1216.07 148.728C1215.63 148.91 1215.16 149.004 1214.68 149.004C1213.72 149.004 1212.79 148.622 1212.11 147.941C1211.43 147.26 1211.05 146.337 1211.05 145.374Z" stroke="#E0AC00" stroke-width="0.5"/>
<path d="M1250.14 165.436C1250.14 164.197 1250.63 163.009 1251.51 162.133C1252.38 161.258 1253.57 160.766 1254.81 160.766C1256.05 160.766 1257.24 161.258 1258.11 162.133C1258.99 163.009 1259.48 164.197 1259.48 165.436C1259.48 166.049 1259.36 166.656 1259.12 167.223C1258.89 167.789 1258.55 168.304 1258.11 168.738C1257.68 169.171 1257.16 169.515 1256.6 169.75C1256.03 169.985 1255.42 170.106 1254.81 170.106C1254.2 170.106 1253.59 169.985 1253.02 169.75C1252.46 169.515 1251.94 169.171 1251.51 168.738C1251.07 168.304 1250.73 167.789 1250.49 167.223C1250.26 166.656 1250.14 166.049 1250.14 165.436Z" stroke="#171717" stroke-width="0.5"/>
<path d="M1229.67 165.345C1229.67 164.133 1230.15 162.971 1231.01 162.114C1231.87 161.257 1233.03 160.775 1234.24 160.775C1235.45 160.775 1236.61 161.257 1237.47 162.114C1238.33 162.971 1238.81 164.133 1238.81 165.345C1238.81 166.557 1238.33 167.72 1237.47 168.577C1236.61 169.434 1235.45 169.915 1234.24 169.915C1233.03 169.915 1231.87 169.434 1231.01 168.577C1230.15 167.72 1229.67 166.557 1229.67 165.345Z" stroke="#171717" stroke-width="0.5"/>
<path d="M1191.15 165.514C1191.15 164.273 1191.64 163.082 1192.52 162.205C1193.4 161.327 1194.59 160.834 1195.83 160.834C1197.07 160.834 1198.26 161.327 1199.14 162.205C1200.02 163.082 1200.51 164.273 1200.51 165.514C1200.51 166.755 1200.02 167.946 1199.14 168.823C1198.26 169.701 1197.07 170.194 1195.83 170.194C1194.59 170.194 1193.4 169.701 1192.52 168.823C1191.64 167.946 1191.15 166.755 1191.15 165.514Z" stroke="#171717" stroke-width="0.5"/>
<path d="M1270.8 165.434C1270.8 164.839 1270.92 164.25 1271.15 163.701C1271.37 163.151 1271.71 162.652 1272.13 162.231C1272.55 161.81 1273.05 161.477 1273.6 161.249C1274.15 161.021 1274.74 160.904 1275.33 160.904C1275.93 160.904 1276.51 161.021 1277.06 161.249C1277.61 161.477 1278.11 161.81 1278.53 162.231C1278.95 162.652 1279.29 163.151 1279.52 163.701C1279.74 164.25 1279.86 164.839 1279.86 165.434C1279.86 166.636 1279.38 167.788 1278.53 168.637C1277.68 169.487 1276.53 169.964 1275.33 169.964C1274.13 169.964 1272.98 169.487 1272.13 168.637C1271.28 167.788 1270.8 166.636 1270.8 165.434Z" stroke="#E0AC00" stroke-width="0.5"/>
<path d="M1270.68 185.305C1270.68 184.069 1271.17 182.883 1272.04 182.009C1272.92 181.135 1274.1 180.645 1275.34 180.645C1276.58 180.645 1277.76 181.135 1278.64 182.009C1279.51 182.883 1280 184.069 1280 185.305C1280 186.54 1279.51 187.726 1278.64 188.6C1277.76 189.474 1276.58 189.965 1275.34 189.965C1274.1 189.965 1272.92 189.474 1272.04 188.6C1271.17 187.726 1270.68 186.54 1270.68 185.305Z" stroke="#171717" stroke-width="0.5"/>
<path d="M1250.23 185.305C1250.23 184.061 1250.72 182.868 1251.6 181.989C1252.48 181.109 1253.68 180.615 1254.92 180.615C1256.16 180.615 1257.36 181.109 1258.24 181.989C1259.12 182.868 1259.61 184.061 1259.61 185.305C1259.61 186.549 1259.12 187.742 1258.24 188.622C1257.36 189.501 1256.16 189.995 1254.92 189.995C1253.68 189.995 1252.48 189.501 1251.6 188.622C1250.72 187.742 1250.23 186.549 1250.23 185.305Z" stroke="#171717" stroke-width="0.5"/>
<path d="M1191.16 185.305C1191.16 184.69 1191.28 184.082 1191.52 183.514C1191.75 182.946 1192.1 182.43 1192.53 181.996C1192.96 181.561 1193.48 181.216 1194.05 180.981C1194.62 180.746 1195.22 180.625 1195.84 180.625C1196.45 180.625 1197.06 180.746 1197.63 180.981C1198.2 181.216 1198.71 181.561 1199.15 181.996C1199.58 182.43 1199.93 182.946 1200.16 183.514C1200.4 184.082 1200.52 184.69 1200.52 185.305C1200.52 185.92 1200.4 186.528 1200.16 187.096C1199.93 187.664 1199.58 188.18 1199.15 188.614C1198.71 189.049 1198.2 189.394 1197.63 189.629C1197.06 189.864 1196.45 189.985 1195.84 189.985C1195.22 189.985 1194.62 189.864 1194.05 189.629C1193.48 189.394 1192.96 189.049 1192.53 188.614C1192.1 188.18 1191.75 187.664 1191.52 187.096C1191.28 186.528 1191.16 185.92 1191.16 185.305Z" stroke="#171717" stroke-width="0.5"/>
<path d="M1270.66 67.1949C1270.66 67.8056 1270.78 68.4102 1271.01 68.9744C1271.25 69.5386 1271.59 70.0512 1272.02 70.483C1272.45 70.9148 1272.97 71.2573 1273.53 71.491C1274.09 71.7246 1274.7 71.8449 1275.31 71.8449C1276.54 71.8449 1277.73 71.355 1278.6 70.483C1279.47 69.6109 1279.96 68.4282 1279.96 67.1949C1279.96 65.9617 1279.47 64.7789 1278.6 63.9069C1277.73 63.0348 1276.54 62.5449 1275.31 62.5449C1274.7 62.5449 1274.09 62.6652 1273.53 62.8989C1272.97 63.1326 1272.45 63.4751 1272.02 63.9069C1271.59 64.3387 1271.25 64.8513 1271.01 65.4154C1270.78 65.9796 1270.66 66.5843 1270.66 67.1949Z" fill="#171717"/>
<path d="M1250.38 67.2344C1250.38 68.4278 1250.85 69.5724 1251.7 70.4164C1252.54 71.2603 1253.69 71.7344 1254.88 71.7344C1256.07 71.7344 1257.22 71.2603 1258.06 70.4164C1258.91 69.5724 1259.38 68.4278 1259.38 67.2344C1259.38 66.0409 1258.91 64.8963 1258.06 64.0524C1257.22 63.2085 1256.07 62.7344 1254.88 62.7344C1253.69 62.7344 1252.54 63.2085 1251.7 64.0524C1250.85 64.8963 1250.38 66.0409 1250.38 67.2344Z" fill="#E0AC00"/>
<path d="M1229.86 67.1951C1229.86 68.3859 1230.33 69.5279 1231.17 70.37C1232.02 71.212 1233.16 71.6851 1234.35 71.6851C1234.94 71.6851 1235.52 71.5689 1236.07 71.3433C1236.61 71.1177 1237.11 70.7869 1237.52 70.37C1237.94 69.9531 1238.27 69.4581 1238.5 68.9133C1238.72 68.3686 1238.84 67.7847 1238.84 67.1951C1238.84 66.6054 1238.72 66.0216 1238.5 65.4768C1238.27 64.9321 1237.94 64.4371 1237.52 64.0202C1237.11 63.6032 1236.61 63.2725 1236.07 63.0469C1235.52 62.8212 1234.94 62.7051 1234.35 62.7051C1233.16 62.7051 1232.02 63.1781 1231.17 64.0202C1230.33 64.8622 1229.86 66.0043 1229.86 67.1951Z" fill="#E0AC00"/>
<path d="M1191.36 67.2745C1191.36 67.8601 1191.48 68.4401 1191.7 68.9812C1191.92 69.5223 1192.25 70.014 1192.67 70.4282C1193.08 70.8423 1193.57 71.1708 1194.11 71.395C1194.65 71.6191 1195.23 71.7345 1195.82 71.7345C1196.41 71.7345 1196.99 71.6191 1197.53 71.395C1198.07 71.1708 1198.56 70.8423 1198.97 70.4282C1199.39 70.014 1199.72 69.5223 1199.94 68.9812C1200.16 68.4401 1200.28 67.8601 1200.28 67.2745C1200.28 66.0916 1199.81 64.9572 1198.97 64.1208C1198.14 63.2843 1197 62.8145 1195.82 62.8145C1194.64 62.8145 1193.5 63.2843 1192.67 64.1208C1191.83 64.9572 1191.36 66.0916 1191.36 67.2745Z" fill="#E0AC00"/>
<path d="M1250.57 86.8057C1250.57 87.9886 1251.04 89.123 1251.88 89.9594C1252.71 90.7958 1253.85 91.2657 1255.03 91.2657C1256.21 91.2657 1257.35 90.7958 1258.18 89.9594C1259.02 89.123 1259.49 87.9886 1259.49 86.8057C1259.49 85.6228 1259.02 84.4884 1258.18 83.652C1257.35 82.8156 1256.21 82.3457 1255.03 82.3457C1253.85 82.3457 1252.71 82.8156 1251.88 83.652C1251.04 84.4884 1250.57 85.6228 1250.57 86.8057Z" fill="#E0AC00"/>
<path d="M1229.96 86.8055C1229.96 87.3899 1230.08 87.9685 1230.3 88.5084C1230.52 89.0483 1230.85 89.5389 1231.26 89.9521C1231.68 90.3653 1232.17 90.6931 1232.71 90.9167C1233.25 91.1404 1233.83 91.2555 1234.41 91.2555C1235.59 91.2555 1236.72 90.7866 1237.56 89.9521C1238.39 89.1176 1238.86 87.9857 1238.86 86.8055C1238.86 85.6253 1238.39 84.4934 1237.56 83.6588C1236.72 82.8243 1235.59 82.3555 1234.41 82.3555C1233.83 82.3555 1233.25 82.4706 1232.71 82.6942C1232.17 82.9178 1231.68 83.2456 1231.26 83.6588C1230.85 84.0721 1230.52 84.5626 1230.3 85.1025C1230.08 85.6424 1229.96 86.2211 1229.96 86.8055Z" fill="#E0AC00"/>
<path d="M1270.81 86.8848C1270.81 88.0677 1271.28 89.2021 1272.12 90.0385C1272.95 90.8749 1274.09 91.3448 1275.27 91.3448C1276.45 91.3448 1277.59 90.8749 1278.42 90.0385C1279.26 89.2021 1279.73 88.0677 1279.73 86.8848C1279.73 85.7019 1279.26 84.5675 1278.42 83.7311C1277.59 82.8947 1276.45 82.4248 1275.27 82.4248C1274.09 82.4248 1272.95 82.8947 1272.12 83.7311C1271.28 84.5675 1270.81 85.7019 1270.81 86.8848Z" fill="#E0AC00"/>
<path d="M1191.32 86.8355C1191.32 88.0236 1191.79 89.1631 1192.63 90.0033C1193.47 90.8435 1194.61 91.3155 1195.8 91.3155C1196.99 91.3155 1198.13 90.8435 1198.97 90.0033C1199.81 89.1631 1200.28 88.0236 1200.28 86.8355C1200.28 85.6473 1199.81 84.5078 1198.97 83.6676C1198.13 82.8275 1196.99 82.3555 1195.8 82.3555C1194.61 82.3555 1193.47 82.8275 1192.63 83.6676C1191.79 84.5078 1191.32 85.6473 1191.32 86.8355Z" fill="#E0AC00"/>
<path d="M1211.11 86.8448C1211.11 87.8076 1211.49 88.7309 1212.17 89.4116C1212.85 90.0924 1213.78 90.4748 1214.74 90.4748C1215.7 90.4748 1216.63 90.0924 1217.31 89.4116C1217.99 88.7309 1218.37 87.8076 1218.37 86.8448C1218.37 85.8821 1217.99 84.9588 1217.31 84.278C1216.63 83.5973 1215.7 83.2148 1214.74 83.2148C1213.78 83.2148 1212.85 83.5973 1212.17 84.278C1211.49 84.9588 1211.11 85.8821 1211.11 86.8448Z" fill="#E0AC00"/>
<path d="M1270.84 106.326C1270.84 106.914 1270.96 107.497 1271.18 108.04C1271.41 108.584 1271.74 109.078 1272.15 109.494C1272.57 109.91 1273.06 110.24 1273.61 110.465C1274.15 110.69 1274.73 110.806 1275.32 110.806C1275.91 110.806 1276.49 110.69 1277.03 110.465C1277.58 110.24 1278.07 109.91 1278.49 109.494C1278.9 109.078 1279.23 108.584 1279.46 108.04C1279.68 107.497 1279.8 106.914 1279.8 106.326C1279.8 105.138 1279.33 103.998 1278.49 103.158C1277.65 102.318 1276.51 101.846 1275.32 101.846C1274.13 101.846 1272.99 102.318 1272.15 103.158C1271.31 103.998 1270.84 105.138 1270.84 106.326Z" fill="#E0AC00"/>
<path d="M1250.32 106.354C1250.32 107.577 1250.81 108.749 1251.67 109.614C1252.53 110.478 1253.71 110.964 1254.93 110.964C1256.15 110.964 1257.33 110.478 1258.19 109.614C1259.05 108.749 1259.54 107.577 1259.54 106.354C1259.54 105.131 1259.05 103.959 1258.19 103.094C1257.33 102.23 1256.15 101.744 1254.93 101.744C1253.71 101.744 1252.53 102.23 1251.67 103.094C1250.81 103.959 1250.32 105.131 1250.32 106.354Z" fill="#171717"/>
<path d="M1229.88 106.356C1229.88 106.936 1229.99 107.511 1230.22 108.047C1230.44 108.583 1230.76 109.071 1231.17 109.481C1231.58 109.891 1232.07 110.217 1232.61 110.439C1233.14 110.661 1233.72 110.776 1234.3 110.776C1234.88 110.776 1235.45 110.661 1235.99 110.439C1236.53 110.217 1237.01 109.891 1237.43 109.481C1237.84 109.071 1238.16 108.583 1238.38 108.047C1238.61 107.511 1238.72 106.936 1238.72 106.356C1238.72 105.183 1238.25 104.059 1237.43 103.23C1236.6 102.401 1235.47 101.936 1234.3 101.936C1233.72 101.936 1233.14 102.05 1232.61 102.272C1232.07 102.494 1231.58 102.82 1231.17 103.23C1230.76 103.641 1230.44 104.128 1230.22 104.664C1229.99 105.2 1229.88 105.775 1229.88 106.356Z" fill="#E0AC00"/>
<path d="M1191.39 106.424C1191.39 107.602 1191.86 108.731 1192.69 109.564C1193.52 110.397 1194.65 110.864 1195.83 110.864C1197.01 110.864 1198.14 110.397 1198.97 109.564C1199.8 108.731 1200.27 107.602 1200.27 106.424C1200.27 105.247 1199.8 104.117 1198.97 103.285C1198.14 102.452 1197.01 101.984 1195.83 101.984C1194.65 101.984 1193.52 102.452 1192.69 103.285C1191.86 104.117 1191.39 105.247 1191.39 106.424Z" fill="#E0AC00"/>
<path d="M1191.1 126.034C1191.1 127.286 1191.6 128.487 1192.48 129.372C1193.37 130.257 1194.57 130.754 1195.82 130.754C1197.07 130.754 1198.27 130.257 1199.16 129.372C1200.04 128.487 1200.54 127.286 1200.54 126.034C1200.54 125.415 1200.42 124.801 1200.18 124.228C1199.94 123.656 1199.6 123.135 1199.16 122.697C1198.72 122.259 1198.2 121.911 1197.63 121.674C1197.05 121.437 1196.44 121.314 1195.82 121.314C1195.2 121.314 1194.59 121.437 1194.01 121.674C1193.44 121.911 1192.92 122.259 1192.48 122.697C1192.04 123.135 1191.7 123.656 1191.46 124.228C1191.22 124.801 1191.1 125.415 1191.1 126.034Z" fill="#171717"/>
<path d="M1270.8 126.006C1270.8 127.196 1271.27 128.338 1272.12 129.181C1272.96 130.023 1274.1 130.496 1275.29 130.496C1276.48 130.496 1277.62 130.023 1278.47 129.181C1279.31 128.338 1279.78 127.196 1279.78 126.006C1279.78 125.416 1279.66 124.832 1279.44 124.287C1279.21 123.743 1278.88 123.248 1278.47 122.831C1278.05 122.414 1277.55 122.083 1277.01 121.857C1276.46 121.632 1275.88 121.516 1275.29 121.516C1274.7 121.516 1274.12 121.632 1273.57 121.857C1273.03 122.083 1272.53 122.414 1272.12 122.831C1271.7 123.248 1271.37 123.743 1271.14 124.287C1270.92 124.832 1270.8 125.416 1270.8 126.006Z" fill="#E0AC00"/>
<path d="M1250.28 126.035C1250.28 127.257 1250.77 128.43 1251.63 129.295C1252.49 130.159 1253.67 130.645 1254.89 130.645C1256.11 130.645 1257.29 130.159 1258.15 129.295C1259.01 128.43 1259.5 127.257 1259.5 126.035C1259.5 124.812 1259.01 123.64 1258.15 122.775C1257.29 121.91 1256.11 121.425 1254.89 121.425C1253.67 121.425 1252.49 121.91 1251.63 122.775C1250.77 123.64 1250.28 124.812 1250.28 126.035Z" fill="#171717"/>
<path d="M1229.92 126.075C1229.92 127.242 1230.38 128.361 1231.21 129.186C1232.03 130.011 1233.15 130.475 1234.32 130.475C1235.49 130.475 1236.61 130.011 1237.43 129.186C1238.26 128.361 1238.72 127.242 1238.72 126.075C1238.72 124.908 1238.26 123.789 1237.43 122.964C1236.61 122.138 1235.49 121.675 1234.32 121.675C1233.15 121.675 1232.03 122.138 1231.21 122.964C1230.38 123.789 1229.92 124.908 1229.92 126.075Z" fill="#E0AC00"/>
<path d="M1250.21 145.705C1250.21 146.317 1250.33 146.923 1250.56 147.488C1250.8 148.054 1251.14 148.567 1251.58 149C1252.01 149.433 1252.52 149.776 1253.09 150.01C1253.65 150.244 1254.26 150.365 1254.87 150.365C1255.48 150.365 1256.09 150.244 1256.65 150.01C1257.22 149.776 1257.73 149.433 1258.17 149C1258.6 148.567 1258.94 148.054 1259.18 147.488C1259.41 146.923 1259.53 146.317 1259.53 145.705C1259.53 145.093 1259.41 144.487 1259.18 143.922C1258.94 143.356 1258.6 142.843 1258.17 142.41C1257.73 141.977 1257.22 141.634 1256.65 141.4C1256.09 141.165 1255.48 141.045 1254.87 141.045C1253.63 141.045 1252.45 141.536 1251.58 142.41C1250.7 143.284 1250.21 144.469 1250.21 145.705Z" fill="#171717"/>
<path d="M1191.13 145.765C1191.13 147.001 1191.62 148.187 1192.5 149.061C1193.37 149.935 1194.55 150.425 1195.79 150.425C1197.03 150.425 1198.21 149.935 1199.09 149.061C1199.96 148.187 1200.45 147.001 1200.45 145.765C1200.45 144.53 1199.96 143.344 1199.09 142.47C1198.21 141.596 1197.03 141.105 1195.79 141.105C1194.55 141.105 1193.37 141.596 1192.5 142.47C1191.62 143.344 1191.13 144.53 1191.13 145.765Z" fill="#171717"/>
<path d="M1270.82 145.795C1270.82 146.384 1270.94 146.968 1271.16 147.513C1271.39 148.058 1271.72 148.553 1272.13 148.97C1272.55 149.387 1273.05 149.717 1273.59 149.943C1274.14 150.169 1274.72 150.285 1275.31 150.285C1275.9 150.285 1276.48 150.169 1277.03 149.943C1277.57 149.717 1278.07 149.387 1278.48 148.97C1278.9 148.553 1279.23 148.058 1279.46 147.513C1279.68 146.968 1279.8 146.384 1279.8 145.795C1279.8 144.604 1279.33 143.462 1278.48 142.62C1277.64 141.778 1276.5 141.305 1275.31 141.305C1274.12 141.305 1272.98 141.778 1272.13 142.62C1271.29 143.462 1270.82 144.604 1270.82 145.795Z" fill="#E0AC00"/>
<path d="M1229.93 145.734C1229.93 146.313 1230.04 146.887 1230.27 147.422C1230.49 147.957 1230.81 148.443 1231.22 148.853C1231.63 149.262 1232.12 149.587 1232.65 149.809C1233.19 150.03 1233.76 150.144 1234.34 150.144C1235.51 150.144 1236.63 149.68 1237.46 148.853C1238.29 148.026 1238.75 146.904 1238.75 145.734C1238.75 144.565 1238.29 143.443 1237.46 142.616C1236.63 141.789 1235.51 141.324 1234.34 141.324C1233.76 141.324 1233.19 141.438 1232.65 141.66C1232.12 141.882 1231.63 142.206 1231.22 142.616C1230.81 143.025 1230.49 143.512 1230.27 144.047C1230.04 144.582 1229.93 145.155 1229.93 145.734Z" fill="#E0AC00"/>
<path d="M1171.35 145.105C1171.35 146.113 1171.75 147.079 1172.46 147.792C1173.18 148.504 1174.14 148.905 1175.15 148.905C1176.16 148.905 1177.12 148.504 1177.84 147.792C1178.55 147.079 1178.95 146.113 1178.95 145.105C1178.95 144.097 1178.55 143.13 1177.84 142.418C1177.12 141.705 1176.16 141.305 1175.15 141.305C1174.14 141.305 1173.18 141.705 1172.46 142.418C1171.75 143.13 1171.35 144.097 1171.35 145.105Z" fill="#171717"/>
<path d="M1211.05 145.374C1211.05 146.337 1211.43 147.26 1212.11 147.941C1212.79 148.622 1213.72 149.004 1214.68 149.004C1215.16 149.004 1215.63 148.91 1216.07 148.728C1216.51 148.545 1216.91 148.278 1217.25 147.941C1217.58 147.604 1217.85 147.204 1218.03 146.763C1218.22 146.323 1218.31 145.851 1218.31 145.374C1218.31 144.897 1218.22 144.425 1218.03 143.985C1217.85 143.545 1217.58 143.144 1217.25 142.807C1216.91 142.47 1216.51 142.203 1216.07 142.02C1215.63 141.838 1215.16 141.744 1214.68 141.744C1213.72 141.744 1212.79 142.127 1212.11 142.807C1211.43 143.488 1211.05 144.411 1211.05 145.374Z" fill="#E0AC00"/>
<path d="M1250.14 165.436C1250.14 166.049 1250.26 166.656 1250.49 167.223C1250.73 167.789 1251.07 168.304 1251.51 168.738C1251.94 169.171 1252.46 169.515 1253.02 169.75C1253.59 169.985 1254.2 170.106 1254.81 170.106C1255.42 170.106 1256.03 169.985 1256.6 169.75C1257.16 169.515 1257.68 169.171 1258.11 168.738C1258.55 168.304 1258.89 167.789 1259.12 167.223C1259.36 166.656 1259.48 166.049 1259.48 165.436C1259.48 164.197 1258.99 163.009 1258.11 162.133C1257.24 161.258 1256.05 160.766 1254.81 160.766C1253.57 160.766 1252.38 161.258 1251.51 162.133C1250.63 163.009 1250.14 164.197 1250.14 165.436Z" fill="#171717"/>
<path d="M1229.67 165.345C1229.67 166.557 1230.15 167.72 1231.01 168.577C1231.87 169.434 1233.03 169.915 1234.24 169.915C1235.45 169.915 1236.61 169.434 1237.47 168.577C1238.33 167.72 1238.81 166.557 1238.81 165.345C1238.81 164.133 1238.33 162.971 1237.47 162.114C1236.61 161.257 1235.45 160.775 1234.24 160.775C1233.03 160.775 1231.87 161.257 1231.01 162.114C1230.15 162.971 1229.67 164.133 1229.67 165.345Z" fill="#171717"/>
<path d="M1191.15 165.514C1191.15 166.755 1191.64 167.946 1192.52 168.823C1193.4 169.701 1194.59 170.194 1195.83 170.194C1197.07 170.194 1198.26 169.701 1199.14 168.823C1200.02 167.946 1200.51 166.755 1200.51 165.514C1200.51 164.273 1200.02 163.082 1199.14 162.205C1198.26 161.327 1197.07 160.834 1195.83 160.834C1194.59 160.834 1193.4 161.327 1192.52 162.205C1191.64 163.082 1191.15 164.273 1191.15 165.514Z" fill="#171717"/>
<path d="M1270.8 165.434C1270.8 166.636 1271.28 167.788 1272.13 168.637C1272.98 169.487 1274.13 169.964 1275.33 169.964C1276.53 169.964 1277.68 169.487 1278.53 168.637C1279.38 167.788 1279.86 166.636 1279.86 165.434C1279.86 164.839 1279.74 164.25 1279.52 163.701C1279.29 163.151 1278.95 162.652 1278.53 162.231C1278.11 161.81 1277.61 161.477 1277.06 161.249C1276.51 161.021 1275.93 160.904 1275.33 160.904C1274.74 160.904 1274.15 161.021 1273.6 161.249C1273.05 161.477 1272.55 161.81 1272.13 162.231C1271.71 162.652 1271.37 163.151 1271.15 163.701C1270.92 164.25 1270.8 164.839 1270.8 165.434Z" fill="#E0AC00"/>
<path d="M1270.68 185.305C1270.68 186.54 1271.17 187.726 1272.04 188.6C1272.92 189.474 1274.1 189.965 1275.34 189.965C1276.58 189.965 1277.76 189.474 1278.64 188.6C1279.51 187.726 1280 186.54 1280 185.305C1280 184.069 1279.51 182.883 1278.64 182.009C1277.76 181.135 1276.58 180.645 1275.34 180.645C1274.1 180.645 1272.92 181.135 1272.04 182.009C1271.17 182.883 1270.68 184.069 1270.68 185.305Z" fill="#171717"/>
<path d="M1250.23 185.305C1250.23 186.549 1250.72 187.742 1251.6 188.622C1252.48 189.501 1253.68 189.995 1254.92 189.995C1256.16 189.995 1257.36 189.501 1258.24 188.622C1259.12 187.742 1259.61 186.549 1259.61 185.305C1259.61 184.061 1259.12 182.868 1258.24 181.989C1257.36 181.109 1256.16 180.615 1254.92 180.615C1253.68 180.615 1252.48 181.109 1251.6 181.989C1250.72 182.868 1250.23 184.061 1250.23 185.305Z" fill="#171717"/>
<path d="M1191.16 185.305C1191.16 185.92 1191.28 186.528 1191.52 187.096C1191.75 187.664 1192.1 188.18 1192.53 188.614C1192.97 189.049 1193.48 189.394 1194.05 189.629C1194.62 189.864 1195.23 189.985 1195.84 189.985C1196.46 189.985 1197.06 189.864 1197.63 189.629C1198.2 189.394 1198.72 189.049 1199.15 188.614C1199.58 188.18 1199.93 187.664 1200.16 187.096C1200.4 186.528 1200.52 185.92 1200.52 185.305C1200.52 184.69 1200.4 184.082 1200.16 183.514C1199.93 182.946 1199.58 182.43 1199.15 181.996C1198.72 181.561 1198.2 181.216 1197.63 180.981C1197.06 180.746 1196.46 180.625 1195.84 180.625C1195.23 180.625 1194.62 180.746 1194.05 180.981C1193.48 181.216 1192.97 181.561 1192.53 181.996C1192.1 182.43 1191.75 182.946 1191.52 183.514C1191.28 184.082 1191.16 184.69 1191.16 185.305Z" fill="#171717"/>
</g>
</g>
<defs>
<clipPath id="clip0_13604_1297">
<rect width="1280" height="190" fill="white"/>
</clipPath>
<clipPath id="clip1_13604_1297">
<rect width="108.65" height="190" fill="white"/>
</clipPath>
<clipPath id="clip2_13604_1297">
<rect width="108.65" height="190" fill="white" transform="translate(1171.35)"/>
</clipPath>
</defs>
</svg>
